<svg xmlns="http://www.w3.org/2000/svg" xmlns:xlink="http://www.w3.org/1999/xlink" viewBox="0 0 187 172"><defs><style>.cls-1,.cls-2,.cls-22{stroke:lime;stroke-miterlimit:10;}.cls-1{fill:url(#Foliage_9);}.cls-2{fill:url(#Foliage_9-2);}.cls-3{fill:#8480b6;}.cls-4{fill:url(#linear-gradient);}.cls-5{fill:url(#linear-gradient-2);}.cls-6{fill:url(#linear-gradient-3);}.cls-7{fill:#d1d1e6;}.cls-8{fill:#5d5388;}.cls-9{fill:#6e659d;}.cls-10{fill:url(#linear-gradient-4);}.cls-11{fill:url(#radial-gradient);}.cls-12{fill:url(#linear-gradient-5);}.cls-13{fill:url(#radial-gradient-2);}.cls-14{fill:url(#linear-gradient-6);}.cls-15{fill:#1a171b;}.cls-16{fill:url(#linear-gradient-7);}.cls-17{fill:#64b8bb;}.cls-18{fill:url(#linear-gradient-8);}.cls-19{fill:#fff;}.cls-20{fill:url(#linear-gradient-9);}.cls-21{fill:url(#linear-gradient-10);}.cls-22{fill:none;}</style><linearGradient id="Foliage_9" x1="93.5" y1="1.84" x2="93.5" y2="170.16" gradientUnits="userSpaceOnUse"><stop offset="0.01" stop-color="#f5e19a"/><stop offset="0.51" stop-color="#ecc91a"/><stop offset="1" stop-color="#bf9d17"/></linearGradient><linearGradient id="Foliage_9-2" x1="93.5" y1="0.5" x2="93.5" y2="171.5" xlink:href="#Foliage_9"/><linearGradient id="linear-gradient" x1="135.76" y1="51.3" x2="121.39" y2="68.69" gradientUnits="userSpaceOnUse"><stop offset="0" stop-color="#a4a4cd"/><stop offset="0.99" stop-color="#8480b6"/></linearGradient><linearGradient id="linear-gradient-2" x1="107.54" y1="108.02" x2="108.78" y2="142.37" gradientUnits="userSpaceOnUse"><stop offset="0" stop-color="#6e659d"/><stop offset="1" stop-color="#8480b6"/></linearGradient><linearGradient id="linear-gradient-3" x1="127.98" y1="126.21" x2="157.64" y2="237.58" gradientUnits="userSpaceOnUse"><stop offset="0" stop-color="#fff6b3"/><stop offset="1" stop-color="#f8c86e"/></linearGradient><linearGradient id="linear-gradient-4" x1="55.17" y1="101.14" x2="60.12" y2="92.33" xlink:href="#linear-gradient"/><radialGradient id="radial-gradient" cx="-45.65" cy="172.63" r="12.1" gradientTransform="translate(132.15 -63.78) scale(0.8 0.73)" gradientUnits="userSpaceOnUse"><stop offset="0" stop-color="#656394"/><stop offset="1" stop-color="#484382"/></radialGradient><linearGradient id="linear-gradient-5" x1="97.48" y1="63.43" x2="103.96" y2="57.46" gradientUnits="userSpaceOnUse"><stop offset="0" stop-color="#3e406b"/><stop offset="1" stop-color="#19193c"/></linearGradient><radialGradient id="radial-gradient-2" cx="-103.42" cy="169.33" r="12.1" xlink:href="#radial-gradient"/><linearGradient id="linear-gradient-6" x1="51.37" y1="61.01" x2="57.85" y2="55.05" xlink:href="#linear-gradient-5"/><linearGradient id="linear-gradient-7" x1="429.94" y1="40.43" x2="429.94" y2="37.81" gradientTransform="matrix(-1, 0, 0, 1, 513.36, 0)" gradientUnits="userSpaceOnUse"><stop offset="0" stop-color="#9dd4dd"/><stop offset="1" stop-color="#fff"/></linearGradient><linearGradient id="linear-gradient-8" x1="428" y1="39.73" x2="428" y2="38.15" gradientTransform="matrix(-1, 0, 0, 1, 513.36, 0)" gradientUnits="userSpaceOnUse"><stop offset="0" stop-color="#0080ae"/><stop offset="1" stop-color="#1a171b"/></linearGradient><linearGradient id="linear-gradient-9" x1="412.17" y1="42.55" x2="412.17" y2="39.47" xlink:href="#linear-gradient-7"/><linearGradient id="linear-gradient-10" x1="411.67" y1="40.71" x2="411.67" y2="38.86" xlink:href="#linear-gradient-8"/></defs><g id="Layer_2" data-name="Layer 2"><g id="Layer_1-2" data-name="Layer 1"><path class="cls-1" d="M186.5,86C184.41,198.22,2.57,198.2.5,86,2.59-26.22,184.43-26.2,186.5,86Z"/><path class="cls-2" d="M93.5,171.5C-29.62,168.1-29.59,3.89,93.5.5,216.62,3.9,216.59,168.11,93.5,171.5ZM93.5.76c-122.74,3.4-122.71,167.1,0,170.48C216.24,167.84,216.21,4.14,93.5.76Z"/><path class="cls-3" d="M88,101.92c-.21,2.93-2.26,33.29-2,67.24l2.16-.32c5.93-.93,11.83-2,17.79-2.83,6.18-.83,12.39-1.51,18.59-2.26,3.11-.38,6.22-.77,9.32-1.2,2.64-.36,5.27-.8,7.92-1.1a111.55,111.55,0,0,1-2.48-13.35C136.61,130.59,137,113,137.4,95.35c.26-12.6,1.69-25.74-.85-38.22-4.45-21.91-27.5-20.79-27.5-20.79l-2.33,7.24L90,37.45,76.69,44.51S64.15,42.65,46,44.88A28.87,28.87,0,0,0,36.24,65.3c-.41,13,5.66,26.36,8.49,29.7C46.67,97.3,67.84,102.56,88,101.92Z"/><path class="cls-4" d="M88,101.92c-.2,2.83-2.12,31.27-2,63.81,13.85-1.25,38.5-3.55,55.45-5.56-1-3.92-1.52-8-2.14-12.07C136.61,130.59,137,113,137.4,95.35c.26-12.6,1.69-25.74-.85-38.22-4.45-21.91-27.5-20.79-27.5-20.79l-2.33,7.24L90,37.45,76.69,44.51S64.15,42.65,46,44.88A28.87,28.87,0,0,0,36.24,65.3c-.41,13,5.66,26.36,8.49,29.7C46.67,97.3,67.84,102.56,88,101.92Z"/><path class="cls-5" d="M120.24,101.07c-4.86,3.22-13.49,2-13.49,2,3-.74,8.63-5,8.63-5,13.76-14.36,13.49-32.92,13.49-32.92a55.19,55.19,0,0,1-15.64,31.18c-6.47,4.4-21.89,5.48-25.24,5.67-.19,2.69-1.44,21.5-1.89,45.56l27.83-3.92C112.72,125.85,120.24,101.07,120.24,101.07Z"/><path class="cls-6" d="M141.52,160.66a121.52,121.52,0,0,1-2.26-12.56q-.63-4.18-1-8.37a9.89,9.89,0,0,0-8.25,4.64,11.52,11.52,0,0,0,1.41,14A9.76,9.76,0,0,0,141.52,160.66Z"/><path class="cls-7" d="M125,42.94c-.34.78-1.91,0-4-.79s-3.82-1.11-3.48-1.9,2.28-.82,4.33-.08S125.34,42.15,125,42.94Z"/><path class="cls-8" d="M54.84,44a191.19,191.19,0,0,1,19.29,2.91c10.51,2.47,33.7,1,36.74,8s-25.69,9.66-25.69,9.66L50.6,49.89l-4.45-5.2Z"/><path class="cls-9" d="M100.75,100.39c11.74-11,16-40.66,9.92-46.23s-26.9-2.6-38.84-5.76a140,140,0,0,0-24.9-3.64l-1,.12A28.87,28.87,0,0,0,36.24,65.3c-.41,13,5.66,26.36,8.49,29.7,1.94,2.3,23.11,7.56,43.27,6.92a.61.61,0,0,0,0,.14h0C92.46,101.87,100.75,100.39,100.75,100.39Z"/><path class="cls-10" d="M48,91.72c-5.44-4-7.44-10-9.12-17.69-.91-4.18-2.82-10.76-1.66-15a27.38,27.38,0,0,0-.94,6.31c-.41,13,5.66,26.36,8.49,29.7,1.94,2.3,23.11,7.56,43.27,6.92a.61.61,0,0,0,0,.14h0c.38,0,.78,0,1.2-.08a64.29,64.29,0,0,1,7.84-1.16C83.28,102,69.2,99.34,56.11,95.55A25.12,25.12,0,0,1,48,91.72Z"/><path class="cls-11" d="M95.36,59a6.42,6.42,0,0,1,4.42-5.94h-.17c-4.54,0-8.23,3.38-8.23,7.55s3.69,7.55,8.23,7.55a8.27,8.27,0,0,0,7.59-4.64,7.29,7.29,0,0,1-4.9,1.85A6.67,6.67,0,0,1,95.36,59Z"/><path class="cls-12" d="M99.78,53.05A6.42,6.42,0,0,0,95.36,59a6.67,6.67,0,0,0,6.94,6.37,7.29,7.29,0,0,0,4.9-1.85,7,7,0,0,0,.63-2.91C107.83,56.48,104.24,53.14,99.78,53.05Z"/><path class="cls-13" d="M49.25,56.57a6.4,6.4,0,0,1,4.42-5.93H53.5c-4.55,0-8.23,3.38-8.23,7.55S49,65.73,53.5,65.73a8.26,8.26,0,0,0,7.58-4.63A7.25,7.25,0,0,1,56.19,63,6.68,6.68,0,0,1,49.25,56.57Z"/><path class="cls-14" d="M53.67,50.64a6.4,6.4,0,0,0-4.42,5.93A6.68,6.68,0,0,0,56.19,63a7.25,7.25,0,0,0,4.89-1.85,7,7,0,0,0,.64-2.92C61.72,54.07,58.13,50.72,53.67,50.64Z"/><path class="cls-15" d="M81.5,102.12c2.08.06,4.18.06,6.28,0C87,113,86.56,124,86.22,134.9c-.36,11.42-.56,22.86-.49,34.3l.44-.07c-.13-18.84.39-37.69,1.39-56.52.18-3.5.38-7,.63-10.5,1.78,0,3.56-.15,5.33-.32v0c6.65,7.1,20.15,5.81,27-.37.18-.17-.1-.43-.29-.27-6.63,6-19.65,7.29-26.21.57a64.56,64.56,0,0,0,12.39-2.36,41.14,41.14,0,0,0,5.2-2,6.23,6.23,0,0,0,1.87-1.05c1.13-1.1,2.17-2.29,3.18-3.49,10-11.87,15.47-27.47,10-42.12a.21.21,0,0,0-.17-.13,10.39,10.39,0,0,1,3.15,0c.26,0,.37-.33.11-.36a10.54,10.54,0,0,0-6.63,1.13c-.22.12,0,.44.21.32a10.43,10.43,0,0,1,3-1.06.15.15,0,0,0-.09.21c3.2,8.55,2.72,17.64-.51,26.12a56.42,56.42,0,0,1-10.18,16.6c-.82.94-1.67,1.87-2.58,2.73a5.7,5.7,0,0,1-1.37.7c-.94.44-1.91.83-2.88,1.2a47.41,47.41,0,0,1-5.67,1.68,74.4,74.4,0,0,1-14.85,1.85.13.13,0,0,1,0-.06c0-.24-.39-.24-.41,0v.07c-3.5.1-7,0-10.45-.19a133.36,133.36,0,0,1-22.81-3.25,56.38,56.38,0,0,1-7.15-2.09,12.26,12.26,0,0,1-2-.94,5.44,5.44,0,0,1-1.53-1.85A46.91,46.91,0,0,1,39,82.17,53,53,0,0,1,36.42,66a28.62,28.62,0,0,1,8.71-20.1c.3-.28.6-.56.92-.83.1-.08,0,0,.29,0l2-.22c1.26-.13,2.52-.25,3.78-.35Q58.5,43.92,65,44a87.37,87.37,0,0,1,11.67.71c.26,0,.37-.32.11-.35a99.68,99.68,0,0,0-17.1-.68c-2.9.08-5.79.26-8.67.51-1.55.14-3.09.3-4.63.48-.37,0-.45,0-.67.22a25.79,25.79,0,0,0-4,4.46,29.3,29.3,0,0,0-4.86,10.44c-1.21,5-.85,10.18,0,15.16A60,60,0,0,0,41.09,89a36.86,36.86,0,0,0,2.33,4.5,6.35,6.35,0,0,0,1.53,2,15.85,15.85,0,0,0,4.48,1.87,83,83,0,0,0,8.43,2.1A137.73,137.73,0,0,0,81.5,102.12Z"/><path class="cls-15" d="M109.05,36.52a30.11,30.11,0,0,1,16.21,4.23c12.86,7.7,12.74,24,12.55,36.49-.14,8.73-.62,17.47-.77,26.2-.16,9-.2,18,.27,26.94a211.44,211.44,0,0,0,2.89,25.07,56.6,56.6,0,0,0,1.38,6l.39,0c-.24-.82-.47-1.65-.66-2.49a161.6,161.6,0,0,1-3.4-25.33c-.62-9-.64-18-.52-26.93.12-8.78.47-17.54.75-26.32.25-8.25.27-16.73-1.74-24.81a24.61,24.61,0,0,0-15.33-17.26,30.88,30.88,0,0,0-12-2.14A.19.19,0,1,0,109.05,36.52Z"/><path class="cls-16" d="M73.59,41.25C72.2,37.8,73.36,33.34,77.83,31c3.84-2,11.12-2.6,14,.74a9.78,9.78,0,0,1,2,7.14c-.23,2.11-1.22,5-3.53,5.73A50.53,50.53,0,0,1,83,45.91C78.15,46.65,74.84,44.35,73.59,41.25Z"/><path class="cls-17" d="M90.23,44.58A50.53,50.53,0,0,1,83,45.91c-4,.62-7-.89-8.62-3.22,5,4.13,16.81,0,16.81,0l1.08.39A4.12,4.12,0,0,1,90.23,44.58Z"/><path class="cls-15" d="M73.39,41.3a8.33,8.33,0,0,1,3.31-9.87,15.12,15.12,0,0,1,11.67-1.9c4.41,1.1,5.95,5.5,5.59,9.32a8.1,8.1,0,0,1-2.14,5c-1.53,1.52-4.52,1.64-6.6,1.94-2.51.36-5,.82-7.47-.18a7.87,7.87,0,0,1-4.36-4.3c-.09-.22.3-.32.39-.1a7.56,7.56,0,0,0,4.86,4.32c2.6.78,5.53.07,8.13-.35a16.21,16.21,0,0,0,3.81-.93,5,5,0,0,0,2.36-2.87,10.16,10.16,0,0,0,.14-6.9,6.65,6.65,0,0,0-4.82-4.58,14.7,14.7,0,0,0-6.79,0c-4.77,1-8.53,4.46-8.2,9.15a7.39,7.39,0,0,0,.51,2.16C73.87,41.43,73.48,41.52,73.39,41.3Z"/><path class="cls-18" d="M79.85,38.07a5.53,5.53,0,0,0,11,0,5.53,5.53,0,0,0-11,0Z"/><path class="cls-15" d="M81.47,38.07a3.91,3.91,0,1,0,3.89-3.58A3.74,3.74,0,0,0,81.47,38.07Z"/><path class="cls-19" d="M82.35,36.35c0,1.57,1,.63,2.75.63s3.45.94,3.45-.63a3.11,3.11,0,0,0-6.2,0Z"/><path class="cls-19" d="M84.62,40.9c0,.27.36.48.79.48s.79-.21.79-.48-.35-.48-.79-.48S84.62,40.63,84.62,40.9Z"/><path class="cls-20" d="M89.76,40.06c0,5.85,4.49,9.1,11.53,9.1s11.33-2.7,11.33-8.54-3.08-11.14-10.12-11.14S89.76,34.22,89.76,40.06Z"/><path class="cls-17" d="M101.29,49.16c-6.05,0-10.22-2.41-11.27-6.8,1.07,1.89,3.8,4.71,10.66,5.32,9.61.84,11.62-6.83,11.9-8.16,0,.36,0,.73,0,1.1C112.62,46.46,108.33,49.16,101.29,49.16Z"/><path class="cls-15" d="M90,40.06a8.52,8.52,0,0,0,1.92,5.54A9.81,9.81,0,0,0,97,48.49c4,1,9.58.77,12.85-1.85s3-7.44,1.74-10.89A9.12,9.12,0,0,0,107.83,31,11,11,0,0,0,101,29.74c-5.84.5-11,4.79-11.08,10.32a.2.2,0,0,1-.4,0c0-3.88,2.49-7.22,6.09-9.14s8.55-2.34,12.18-.33c3.38,1.86,4.72,5.62,5,9.05s-.92,6.58-4.26,8.3a15,15,0,0,1-6.08,1.38,18,18,0,0,1-7-.9,8.67,8.67,0,0,1-5.93-8.36A.2.2,0,0,1,90,40.06Z"/><path class="cls-21" d="M95.22,38.76a6.5,6.5,0,0,0,13,0,6.5,6.5,0,0,0-13,0Z"/><path class="cls-15" d="M97.12,38.76a4.59,4.59,0,0,0,9.15,0,4.59,4.59,0,0,0-9.15,0Z"/><path class="cls-19" d="M98.15,36.74c0,1.85,1.23.75,3.24.75s4,1.1,4-.75a3.66,3.66,0,0,0-7.29,0Z"/><path class="cls-19" d="M100.68,41.83c0,.36.48.65,1.06.65s1.07-.29,1.07-.65-.48-.65-1.07-.65S100.68,41.47,100.68,41.83Z"/><path class="cls-22" d="M186.5,86C184.41,198.22,2.57,198.2.5,86,2.59-26.22,184.43-26.2,186.5,86Z"/><path class="cls-22" d="M93.5,171.5C-29.62,168.1-29.59,3.89,93.5.5,216.62,3.9,216.59,168.11,93.5,171.5ZM93.5.76c-122.74,3.4-122.71,167.1,0,170.48C216.24,167.84,216.21,4.14,93.5.76Z"/></g></g></svg>