<svg xmlns="http://www.w3.org/2000/svg" xmlns:xlink="http://www.w3.org/1999/xlink" viewBox="0 0 41 41"><defs><style>.cls-1{stroke:#754c24;stroke-miterlimit:10;fill:url(#Foliage_19);}.cls-2{fill:#4a2f00;}.cls-3{fill:#faecbf;}.cls-4{fill:#e3d08b;}</style><linearGradient id="Foliage_19" x1="10.5" y1="3.18" x2="30.5" y2="37.82" gradientUnits="userSpaceOnUse"><stop offset="0.01" stop-color="#f4e7ce"/><stop offset="0.5" stop-color="#ecd5aa"/><stop offset="0.99" stop-color="#bbac8e"/></linearGradient></defs><g id="Layer_2" data-name="Layer 2"><g id="Layer_1-2" data-name="Layer 1"><circle class="cls-1" cx="20.5" cy="20.5" r="20"/><path class="cls-2" d="M5.37,16.67a4.22,4.22,0,0,1,1.19-.62l.5-.13a4.72,4.72,0,0,1,2.3.13,4.65,4.65,0,0,1,1.45.75,4,4,0,0,1,.65.65c.1.13.16.29.25.42a1.71,1.71,0,0,0,.53.47,1.59,1.59,0,0,0,.77.16l1.12-.08a6.51,6.51,0,0,0,.88-.17c.18,0,.37-.06.55-.11s.36-.06.55-.11a7.94,7.94,0,0,0,.8-.22c.33-.09.65-.22,1-.32s.54-.15.81-.24c.51-.17,1-.3,1.56-.45a25.49,25.49,0,0,0,5-2.2,1.77,1.77,0,0,0,.51-.51c.18-.23.32-.48.48-.73a18.76,18.76,0,0,1,1.14-1.66,3.25,3.25,0,0,1,.77-.66,7.6,7.6,0,0,1,1.28-.63c.21-.08.44-.13.65-.19a3.88,3.88,0,0,1,1-.16,9.18,9.18,0,0,1,1.17.07,6,6,0,0,1,2.53,1,1.59,1.59,0,0,1,.69,1.09,2.91,2.91,0,0,1-.07,1.1A3.84,3.84,0,0,1,35,14.37a7.4,7.4,0,0,0-.59,1.24c.44.26,1,.36,1.43.6a3.55,3.55,0,0,1,.54.35,2.25,2.25,0,0,1,.78.84,2.06,2.06,0,0,1,.21,1,3.83,3.83,0,0,1-.27,1.24A5.35,5.35,0,0,1,36,21.42a4.68,4.68,0,0,1-4.67,1.17,4.7,4.7,0,0,1-1.83-1.1,4.84,4.84,0,0,1-.68-.87l-.16-.23a1,1,0,0,0-.33-.26,1.3,1.3,0,0,0-.42-.18,4.32,4.32,0,0,0-.94-.12,11.8,11.8,0,0,0-1.46.08,18.81,18.81,0,0,0-2,.35,22.51,22.51,0,0,0-2.43.7l-.5.16a19.28,19.28,0,0,0-3,1.23l-.6.31c-.19.08-.35.19-.54.28a7.27,7.27,0,0,0-.85.5c-.14.1-.25.23-.38.34A1.43,1.43,0,0,0,15,24c-.09.16-.2.31-.29.48l-.35.66a19.17,19.17,0,0,1-1,1.77,4.5,4.5,0,0,1-.57.66,4.29,4.29,0,0,1-.49.46c-.15.12-.32.21-.47.32a3.49,3.49,0,0,1-1.16.57l-.38.1A6.13,6.13,0,0,1,9,29.22a3,3,0,0,1-.52,0c-.26,0-.5-.08-.76-.11A2.5,2.5,0,0,1,7.31,29a2.83,2.83,0,0,1-.69-.3,3.26,3.26,0,0,1-.34-.22,1.67,1.67,0,0,1-.46-.56c-.06-.12-.14-.23-.19-.36a2.41,2.41,0,0,1-.13-1.1,6.1,6.1,0,0,1,.18-.93c.21-.75.68-1.4.86-2.17-.45-.25-1-.32-1.43-.56a4,4,0,0,1-.37-.25,2.44,2.44,0,0,1-.83-.83,2.49,2.49,0,0,1-.3-1.23,4.74,4.74,0,0,1,.27-1.53,5.41,5.41,0,0,1,.66-1.37,3.86,3.86,0,0,1,.83-.88m.74,0a2.19,2.19,0,0,0-.41.26,2.54,2.54,0,0,0-.74.79,5,5,0,0,0-.36.73,2.88,2.88,0,0,0-.26.69,1.44,1.44,0,0,0-.08.46c0,.13,0,.27,0,.41s0,.3,0,.45a1.94,1.94,0,0,0,.44,1.21,3.2,3.2,0,0,0,1.51.95l.27.1a.23.23,0,0,0,.19-.07,1.06,1.06,0,0,0,.09-.4,2.51,2.51,0,0,0-.1-.6,1.3,1.3,0,0,0-.19-.37.71.71,0,0,1,.2,0A.83.83,0,0,1,7,21.7a2.53,2.53,0,0,1,.19,1.36A6.11,6.11,0,0,1,7,24.17c-.06.14-.11.28-.16.42s-.2.33-.26.51-.12.29-.17.44-.14.37-.19.55a2.3,2.3,0,0,0-.11.68A1.73,1.73,0,0,0,6.68,28a2.23,2.23,0,0,0,.65.41,3.72,3.72,0,0,0,1.19.2,2.48,2.48,0,0,1,.27,0c.16,0,.33,0,.49,0a7.3,7.3,0,0,0,.94-.08,3.36,3.36,0,0,0,.76-.24c.08,0,.18-.07.26-.12.26-.19.53-.37.78-.58a4.38,4.38,0,0,0,.7-.78,12.32,12.32,0,0,0,1-1.8,6.27,6.27,0,0,1,.51-1,3.81,3.81,0,0,1,.44-.46c-.19.05-.36.12-.54.18a2.8,2.8,0,0,1-.56.12h0l.07-.09c.31-.19.62-.37.94-.54s.84-.43,1.27-.63.78-.37,1.18-.54.83-.4,1.26-.59,1-.43,1.49-.6c.23-.08.47-.12.7-.19l.92-.26c.12,0,.23-.08.35-.12.67-.24,1.34-.46,2-.63s1.14-.25,1.71-.35a11.25,11.25,0,0,1,1.64-.16,3.16,3.16,0,0,1,1.06.15,3.85,3.85,0,0,1,1.48,1c.27.27.52.56.77.84a4.49,4.49,0,0,0,1,.82,2.42,2.42,0,0,0,.77.3,2.91,2.91,0,0,0,1.14,0,4,4,0,0,0,1.41-.53,4,4,0,0,0,1.41-1.51,4.44,4.44,0,0,0,.6-1.76,1.75,1.75,0,0,0-.38-1.22,2.83,2.83,0,0,0-.75-.63,5.35,5.35,0,0,0-1.07-.47.24.24,0,0,0-.28.09,1.74,1.74,0,0,0,.2,1.26,2.55,2.55,0,0,1-.51-.41.9.9,0,0,1-.18-.45,3.56,3.56,0,0,1,.05-1.26,2.42,2.42,0,0,1,.12-.35c.09-.23.23-.43.34-.65a4,4,0,0,0,.21-.47,4.39,4.39,0,0,0,.21-.61c0-.14,0-.29.07-.43a1.58,1.58,0,0,0,0-.75c0-.1-.07-.19-.09-.28a1.42,1.42,0,0,0-.14-.36,1.92,1.92,0,0,0-.83-.74,2.75,2.75,0,0,0-.89-.25c-.26-.07-.53-.05-.78-.1a3.73,3.73,0,0,0-.46,0H31a1.89,1.89,0,0,0-.47.06,3.25,3.25,0,0,0-.43.08l-.48.16a5.41,5.41,0,0,0-1.23.85A9,9,0,0,0,27,13.42a7.71,7.71,0,0,1-.57.95,6.3,6.3,0,0,1,1-.2.29.29,0,0,0,0,.09c-.2.12-.42.22-.63.32-.54.26-1.1.5-1.65.72a6.91,6.91,0,0,0-.68.28c-.34.17-.67.33-1,.48-.86.37-1.72.71-2.6,1-.37.14-.75.22-1.12.34l-.86.24c-.47.17-.93.34-1.41.48a26.47,26.47,0,0,1-2.89.71,7.21,7.21,0,0,1-1.67.15,2.78,2.78,0,0,1-1.39-.52,1.12,1.12,0,0,1-.33-.32c-.12-.19-.22-.4-.33-.61a1.79,1.79,0,0,0-.86-.72c-.32-.14-.64-.31-1-.43a3.16,3.16,0,0,0-.68-.14,5.3,5.3,0,0,0-.69,0,2.33,2.33,0,0,1-.38,0,3.22,3.22,0,0,0-.6.13,1.84,1.84,0,0,0-.51.24Z"/><path class="cls-3" d="M6.11,16.66a1.84,1.84,0,0,1,.51-.24,3.22,3.22,0,0,1,.6-.13,2.33,2.33,0,0,0,.38,0,5.3,5.3,0,0,1,.69,0A3.16,3.16,0,0,1,9,16.4c.33.12.65.29,1,.43a1.79,1.79,0,0,1,.86.72c.11.21.21.42.33.61a1.12,1.12,0,0,0,.33.32,2.78,2.78,0,0,0,1.39.52,7.21,7.21,0,0,0,1.67-.15,26.47,26.47,0,0,0,2.89-.71c.48-.14.94-.31,1.41-.48l.86-.24c.37-.12.75-.2,1.12-.34.88-.31,1.74-.65,2.6-1,.34-.15.67-.31,1-.48a6.91,6.91,0,0,1,.68-.28c.55-.22,1.11-.46,1.65-.72.21-.1.43-.2.63-.32a.29.29,0,0,1,0-.09,1.74,1.74,0,0,1,.2-.58c.07-.15.18-.27.25-.41s.2-.32.29-.49a5.24,5.24,0,0,1,.6-.95A3,3,0,0,1,29.6,11a3.53,3.53,0,0,1,.89-.54A1.89,1.89,0,0,1,31,10.4h.59a3.73,3.73,0,0,1,.46,0c.25.05.52,0,.78.1l.38.23a3.21,3.21,0,0,1,1.33,1.89,2.43,2.43,0,0,1,0,1,.47.47,0,0,0,0,.26,4,4,0,0,1-.21.47c-.11.22-.25.42-.34.65a2.42,2.42,0,0,0-.12.35,3.56,3.56,0,0,0-.05,1.26.9.9,0,0,0,.18.45,2.55,2.55,0,0,0,.51.41,1.74,1.74,0,0,1-.2-1.26c.12.05.26.08.39.13a2.28,2.28,0,0,1,1.24,1.22c.07.17.1.36.17.53a2,2,0,0,1-.44,2c-.12.12-.21.26-.33.38a2.86,2.86,0,0,1-.5.42c-.13.09-.27.15-.39.23a2.68,2.68,0,0,1-1.35.42,3.66,3.66,0,0,1-1-.05A2.83,2.83,0,0,1,31,21.12a2,2,0,0,0-.29-.22,2.75,2.75,0,0,1-.79-.6,2.17,2.17,0,0,0-.37-.31,2.32,2.32,0,0,1-.49-.4c-.08-.09-.19-.15-.27-.24l-.22-.23c-.08-.08-.18-.13-.26-.2a.82.82,0,0,0-.2-.12c-.12,0-.21-.12-.33-.15a2,2,0,0,0-.32-.1,1.2,1.2,0,0,0-.33,0l-.63.14c-.33.06-.65.15-1,.22s-.53.1-.79.17l-.94.24c-.15,0-.3.1-.44.15-.39.14-.77.27-1.16.39s-.81.27-1.22.4-.6.2-.9.3-.46.14-.68.24c-.59.24-1.19.45-1.8.65a20.68,20.68,0,0,1-2.52.95,2.83,2.83,0,0,0-.54.23l-.39.22a.62.62,0,0,0-.18.18.35.35,0,0,0-.08.16c-.06.21-.14.41-.21.62l-.07.09h0a14.06,14.06,0,0,1-.83,1.86,7.33,7.33,0,0,1-1.15,1.62c-.13.13-.28.24-.41.37a2.74,2.74,0,0,1-3.81-.05,2.85,2.85,0,0,1-.72-1.26,2.8,2.8,0,0,1,0-1.35h-.1c.06-.18.2-.33.26-.51s.1-.28.16-.42a6.11,6.11,0,0,0,.18-1.11A2.53,2.53,0,0,0,7,21.7a.83.83,0,0,0-.35-.39.71.71,0,0,0-.2,0,1.3,1.3,0,0,1,.19.37,2.51,2.51,0,0,1,.1.6,1.06,1.06,0,0,1-.09.4,2.25,2.25,0,0,0-.08-.24c-.07,0-.16-.07-.24-.12a1.11,1.11,0,0,1-.24-.2C6,22,5.91,22,5.83,21.9a1.23,1.23,0,0,1-.33-.42,1.14,1.14,0,0,0-.1-.19,3.35,3.35,0,0,1,.1-4,3.42,3.42,0,0,1,.61-.59m23.64-4.78c-.07,0-.06.14,0,.18a.1.1,0,0,0,.16-.05c0-.09-.08-.18-.16-.13m-.66.75a.19.19,0,0,0,.14.32.15.15,0,0,0,.12-.2.17.17,0,0,0-.26-.12m1.19-.05a.11.11,0,0,0,0,.19c.06,0,.13,0,.13-.07s-.1-.18-.17-.12m-1,.87a.21.21,0,0,0-.08.25.23.23,0,0,0,.31.15.22.22,0,0,0,.1-.26.23.23,0,0,0-.33-.14m1.05.07a.11.11,0,0,0,.06.17.09.09,0,0,0,.11-.1.11.11,0,0,0-.17-.07M10.54,19a.1.1,0,0,0,0,.15.1.1,0,0,0,.17,0,.1.1,0,0,0-.13-.12m.89.53a.46.46,0,0,0-.16.11s0,0,0,0a.26.26,0,0,0,.17,0,1.21,1.21,0,0,0,.46-.12.31.31,0,0,0,.15-.1c0-.05-.06-.06-.1-.06a1.54,1.54,0,0,0-.51.1m1.25-.32a.1.1,0,0,0,0,.17.09.09,0,0,0,.13-.08.1.1,0,0,0-.15-.09m13.71-3.35a.11.11,0,0,0,0,.17.09.09,0,0,0,.12-.09.1.1,0,0,0-.16-.08M13.7,19.52a.1.1,0,1,0,.14.09.1.1,0,0,0-.14-.09m-2,.64a.1.1,0,1,0,.16,0c0-.07-.12-.1-.16,0m.83-.11a.09.09,0,0,0,0,.15.1.1,0,0,0,.14-.1.1.1,0,0,0-.17-.05M34.9,18.12a.12.12,0,0,0,.05.19.11.11,0,0,0,.14-.11.12.12,0,0,0-.19-.08M12.64,24.33a.18.18,0,0,0-.08.09.3.3,0,0,0,.16,0,1.48,1.48,0,0,0,.51-.13.36.36,0,0,0,.14-.11c-.06-.06-.15,0-.23,0a1.28,1.28,0,0,0-.5.16m-.41.49a.09.09,0,1,0,.13.06.09.09,0,0,0-.13-.06m19.19-4.89a.11.11,0,0,0,0,.19A.11.11,0,0,0,31.6,20a.11.11,0,0,0-.18-.07m.37.16a.28.28,0,1,0,.42.16.29.29,0,0,0-.42-.16m.94-.18a.13.13,0,0,0,0,.18.28.28,0,0,0,.35.08.12.12,0,0,0,0-.17.3.3,0,0,0-.36-.09M10.86,25.82a.28.28,0,0,0,.21.51.28.28,0,0,0,.19-.39.29.29,0,0,0-.4-.12m20.62-5a.11.11,0,0,0,0,.18.11.11,0,1,0,0-.18m3-.73a.23.23,0,0,0,0,.39.22.22,0,0,0,.34-.19.23.23,0,0,0-.34-.2M10.4,26.6a.15.15,0,0,0,0,.26.15.15,0,0,0,.21-.15.15.15,0,0,0-.23-.11m22.54-5.72a.2.2,0,0,0,0,.34.19.19,0,0,0,.28-.18.2.2,0,0,0-.3-.16M11.49,26.53a.15.15,0,0,0,0,.26.15.15,0,0,0,.2-.18.15.15,0,0,0-.25-.08M34,20.84A.09.09,0,0,0,34,21c.05.06.16,0,.16-.07a.1.1,0,0,0-.17-.06m-23,6.2a.1.1,0,0,0,.06.17.1.1,0,0,0,.1-.13.1.1,0,0,0-.16,0m-.65.47a.1.1,0,1,0,.16.06.09.09,0,0,0-.16-.06Z"/><path class="cls-4" d="M5.7,16.92a2.19,2.19,0,0,1,.41-.26,3.42,3.42,0,0,0-.61.59,3.35,3.35,0,0,0-.1,4,1.14,1.14,0,0,1,.1.19,1.23,1.23,0,0,0,.33.42c.08.07.18.11.25.18a1.11,1.11,0,0,0,.24.2c.08,0,.17.07.24.12a2.25,2.25,0,0,1,.08.24.23.23,0,0,1-.19.07l-.27-.1a3.2,3.2,0,0,1-1.51-.95,1.94,1.94,0,0,1-.44-1.21c0-.15,0-.3,0-.45s0-.28,0-.41a1.44,1.44,0,0,1,.08-.46,2.88,2.88,0,0,1,.26-.69A5,5,0,0,1,5,17.71a2.54,2.54,0,0,1,.74-.79M29.58,10.7l.48-.16a3.25,3.25,0,0,1,.43-.08,3.53,3.53,0,0,0-.89.54,3,3,0,0,0-.87.74,5.24,5.24,0,0,0-.6.95c-.09.17-.2.32-.29.49s-.18.26-.25.41a1.74,1.74,0,0,0-.2.58,6.3,6.3,0,0,0-1,.2,7.71,7.71,0,0,0,.57-.95,9,9,0,0,1,1.37-1.87,5.41,5.41,0,0,1,1.23-.85m3.21-.15a2.75,2.75,0,0,1,.89.25,1.92,1.92,0,0,1,.83.74,1.42,1.42,0,0,1,.14.36c0,.09.06.18.09.28a1.58,1.58,0,0,1,0,.75c0,.14,0,.29-.07.43a4.39,4.39,0,0,1-.21.61.47.47,0,0,1,0-.26,2.43,2.43,0,0,0,0-1,3.21,3.21,0,0,0-1.33-1.89l-.38-.23m-3,1.33c.08-.05.18,0,.16.13a.1.1,0,0,1-.16.05c-.06,0-.07-.15,0-.18m-.66.75a.17.17,0,0,1,.26.12.15.15,0,0,1-.12.2.19.19,0,0,1-.14-.32m1.19-.05c.07-.06.19,0,.17.12s-.07.09-.13.07a.11.11,0,0,1,0-.19m-1,.87a.23.23,0,0,1,.33.14.22.22,0,0,1-.1.26.23.23,0,0,1-.31-.15.21.21,0,0,1,.08-.25m1.05.07a.11.11,0,0,1,.17.07.09.09,0,0,1-.11.1.11.11,0,0,1-.06-.17M10.54,19a.1.1,0,0,1,.13.12.1.1,0,0,1-.17,0,.1.1,0,0,1,0-.15m.89.53a1.54,1.54,0,0,1,.51-.1s.11,0,.1.06a.31.31,0,0,1-.15.1,1.21,1.21,0,0,1-.46.12.26.26,0,0,1-.17,0s0,0,0,0a.46.46,0,0,1,.16-.11m1.25-.32a.1.1,0,0,1,.15.09.09.09,0,0,1-.13.08.1.1,0,0,1,0-.17m13.71-3.35a.1.1,0,0,1,.16.08.09.09,0,0,1-.12.09.11.11,0,0,1,0-.17M13.7,19.52a.1.1,0,1,1,0,.18.1.1,0,0,1,0-.18m-2,.64c0-.06.14,0,.16,0a.1.1,0,1,1-.16,0m.83-.11a.1.1,0,0,1,.17.05.1.1,0,0,1-.14.1.09.09,0,0,1,0-.15M34.25,16.3a.24.24,0,0,1,.28-.09,5.35,5.35,0,0,1,1.07.47,2.83,2.83,0,0,1,.75.63,1.75,1.75,0,0,1,.38,1.22,4.44,4.44,0,0,1-.6,1.76,4,4,0,0,1-1.41,1.51,4,4,0,0,1-1.41.53,2.91,2.91,0,0,1-1.14,0,2.42,2.42,0,0,1-.77-.3,4.49,4.49,0,0,1-1-.82c-.25-.28-.5-.57-.77-.84a3.85,3.85,0,0,0-1.48-1,3.16,3.16,0,0,0-1.06-.15,11.25,11.25,0,0,0-1.64.16c-.57.1-1.15.2-1.71.35s-1.35.39-2,.63c-.12,0-.23.09-.35.12l-.92.26c-.23.07-.47.11-.7.19-.51.17-1,.39-1.49.6s-.83.41-1.26.59-.79.36-1.18.54-.85.41-1.27.63-.63.35-.94.54c.07-.21.15-.41.21-.62a.35.35,0,0,1,.08-.16.62.62,0,0,1,.18-.18l.39-.22a2.83,2.83,0,0,1,.54-.23,20.68,20.68,0,0,0,2.52-.95c.61-.2,1.21-.41,1.8-.65.22-.1.46-.16.68-.24s.59-.22.9-.3.81-.28,1.22-.4.77-.25,1.16-.39c.14-.05.29-.11.44-.15l.94-.24c.26-.07.53-.11.79-.17s.65-.16,1-.22l.63-.14a1.2,1.2,0,0,1,.33,0,2,2,0,0,1,.32.1c.12,0,.21.11.33.15a.82.82,0,0,1,.2.12c.08.07.18.12.26.2l.22.23c.08.09.19.15.27.24a2.32,2.32,0,0,0,.49.4,2.17,2.17,0,0,1,.37.31,2.75,2.75,0,0,0,.79.6,2,2,0,0,1,.29.22,2.83,2.83,0,0,0,1.08.47,3.66,3.66,0,0,0,1,.05,2.68,2.68,0,0,0,1.35-.42c.12-.08.26-.14.39-.23a2.86,2.86,0,0,0,.5-.42c.12-.12.21-.26.33-.38a2,2,0,0,0,.44-2c-.07-.17-.1-.36-.17-.53a2.28,2.28,0,0,0-1.24-1.22c-.13-.05-.27-.08-.39-.13M6.41,25.54c0-.15.12-.29.17-.44h.1a2.8,2.8,0,0,0,0,1.35,2.85,2.85,0,0,0,.72,1.26,2.74,2.74,0,0,0,3.81.05c.13-.13.28-.24.41-.37a7.33,7.33,0,0,0,1.15-1.62,14.06,14.06,0,0,0,.83-1.86,2.8,2.8,0,0,0,.56-.12c.18-.06.35-.13.54-.18a3.81,3.81,0,0,0-.44.46,6.27,6.27,0,0,0-.51,1,12.32,12.32,0,0,1-1,1.8,4.38,4.38,0,0,1-.7.78c-.25.21-.52.39-.78.58-.08.05-.18.08-.26.12a3.36,3.36,0,0,1-.76.24,7.3,7.3,0,0,1-.94.08c-.16,0-.33,0-.49,0a2.48,2.48,0,0,0-.27,0,3.72,3.72,0,0,1-1.19-.2A2.23,2.23,0,0,1,6.68,28a1.73,1.73,0,0,1-.57-1.25,2.3,2.3,0,0,1,.11-.68c0-.18.14-.36.19-.55M34.9,18.12a.12.12,0,0,1,.19.08.11.11,0,0,1-.14.11.12.12,0,0,1-.05-.19M12.64,24.33a1.28,1.28,0,0,1,.5-.16c.08,0,.17,0,.23,0a.36.36,0,0,1-.14.11,1.48,1.48,0,0,1-.51.13.3.3,0,0,1-.16,0,.18.18,0,0,1,.08-.09m-.41.49a.09.09,0,0,1,.13.06.09.09,0,1,1-.13-.06m19.19-4.89a.11.11,0,0,1,.18.07.11.11,0,0,1-.15.12.11.11,0,0,1,0-.19m.37.16a.29.29,0,0,1,.42.16.28.28,0,1,1-.42-.16m.94-.18a.3.3,0,0,1,.36.09.12.12,0,0,1,0,.17.28.28,0,0,1-.35-.08.13.13,0,0,1,0-.18M10.86,25.82a.29.29,0,0,1,.4.12.28.28,0,0,1-.19.39.28.28,0,0,1-.21-.51m20.62-5a.11.11,0,1,1,0,.18.11.11,0,0,1,0-.18m3-.73a.23.23,0,0,1,.34.2.22.22,0,0,1-.34.19.23.23,0,0,1,0-.39M10.4,26.6a.15.15,0,0,1,.23.11.15.15,0,0,1-.21.15.15.15,0,0,1,0-.26m22.54-5.72a.2.2,0,0,1,.3.16.19.19,0,0,1-.28.18.2.2,0,0,1,0-.34M11.49,26.53a.15.15,0,0,1,.25.08.15.15,0,0,1-.2.18.15.15,0,0,1,0-.26M34,20.84a.1.1,0,0,1,.17.06c0,.08-.11.13-.16.07a.09.09,0,0,1,0-.13m-23,6.2a.1.1,0,0,1,.16,0,.1.1,0,0,1-.1.13.1.1,0,0,1-.06-.17m-.65.47a.09.09,0,0,1,.16.06.1.1,0,1,1-.16-.06Z"/></g></g></svg>