<svg id="Layer_1" data-name="Layer 1" xmlns="http://www.w3.org/2000/svg" xmlns:xlink="http://www.w3.org/1999/xlink" viewBox="0 0 202 134"><defs><style>.cls-1{fill:#1a171b;}.cls-2{fill:url(#linear-gradient);}.cls-3{fill:#696196;}.cls-4{fill:url(#linear-gradient-2);}.cls-5{fill:#f9bf47;}.cls-6{fill:#fff;}.cls-7{fill:#c5bfbf;}.cls-8{fill:url(#linear-gradient-3);}.cls-9{fill:url(#linear-gradient-4);}.cls-10{fill:#8480b6;}.cls-11{fill:url(#linear-gradient-5);}.cls-12{fill:url(#linear-gradient-6);}.cls-13{fill:url(#linear-gradient-7);}.cls-14{fill:url(#linear-gradient-8);}.cls-15{fill:url(#linear-gradient-9);}.cls-16{fill:url(#linear-gradient-10);}.cls-17{fill:#a79ec8;}.cls-18{fill:#fff7bd;}.cls-19{fill:#d1d1e6;}.cls-20{fill:#5d5388;}.cls-21{fill:#6e659d;}.cls-22{fill:url(#linear-gradient-11);}.cls-23{fill:url(#radial-gradient);}.cls-24{fill:url(#linear-gradient-12);}.cls-25{fill:url(#radial-gradient-2);}.cls-26{fill:url(#linear-gradient-13);}.cls-27{fill:url(#linear-gradient-14);}.cls-28{fill:url(#linear-gradient-15);}.cls-29{fill:url(#linear-gradient-16);}.cls-30{fill:#64b8bb;}.cls-31{fill:url(#linear-gradient-17);}.cls-32{fill:url(#linear-gradient-18);}.cls-33{fill:url(#linear-gradient-19);}</style><linearGradient id="linear-gradient" x1="79.46" y1="112.27" x2="72.5" y2="122.48" gradientUnits="userSpaceOnUse"><stop offset="0" stop-color="#6e659d"/><stop offset="1" stop-color="#8480b6"/></linearGradient><linearGradient id="linear-gradient-2" x1="558.52" y1="130.68" x2="560.07" y2="134.16" gradientTransform="matrix(-1.08, 0.33, 0.33, 1.08, 635.92, -204.97)" gradientUnits="userSpaceOnUse"><stop offset="0" stop-color="#fff5b0"/><stop offset="1" stop-color="#fccf50"/></linearGradient><linearGradient id="linear-gradient-3" x1="104.47" y1="120.17" x2="101.53" y2="128.83" xlink:href="#linear-gradient"/><linearGradient id="linear-gradient-4" x1="373.9" y1="167.21" x2="375.4" y2="170.57" gradientTransform="matrix(-1.03, 0.2, 0.2, 1.03, 448.23, -121.04)" xlink:href="#linear-gradient-2"/><linearGradient id="linear-gradient-5" x1="89.42" y1="20.18" x2="83.54" y2="27.3" gradientUnits="userSpaceOnUse"><stop offset="0" stop-color="#a4a4cd"/><stop offset="0.99" stop-color="#8480b6"/></linearGradient><linearGradient id="linear-gradient-6" x1="68.86" y1="108.57" x2="77.53" y2="94.65" xlink:href="#linear-gradient"/><linearGradient id="linear-gradient-7" x1="110.73" y1="121.41" x2="110.42" y2="104.09" xlink:href="#linear-gradient"/><linearGradient id="linear-gradient-8" x1="134.13" y1="66.2" x2="113.71" y2="74.86" xlink:href="#linear-gradient"/><linearGradient id="linear-gradient-9" x1="77.63" y1="43.23" x2="78.15" y2="57.57" xlink:href="#linear-gradient"/><linearGradient id="linear-gradient-10" x1="99.88" y1="46.92" x2="112.18" y2="93.1" gradientUnits="userSpaceOnUse"><stop offset="0" stop-color="#fff6b3"/><stop offset="1" stop-color="#f8c86e"/></linearGradient><linearGradient id="linear-gradient-11" x1="57.37" y1="40.05" x2="59.46" y2="36.33" xlink:href="#linear-gradient-5"/><radialGradient id="radial-gradient" cx="-101.61" cy="-21.69" r="4.76" gradientTransform="translate(151.99 41.19) scale(0.78)" gradientUnits="userSpaceOnUse"><stop offset="0" stop-color="#656394"/><stop offset="1" stop-color="#484382"/></radialGradient><linearGradient id="linear-gradient-12" x1="73.71" y1="24.56" x2="76.29" y2="22.19" gradientUnits="userSpaceOnUse"><stop offset="0" stop-color="#3e406b"/><stop offset="1" stop-color="#19193c"/></linearGradient><radialGradient id="radial-gradient-2" cx="-124.33" cy="-22.98" r="4.76" xlink:href="#radial-gradient"/><linearGradient id="linear-gradient-13" x1="56.07" y1="23.56" x2="58.65" y2="21.18" xlink:href="#linear-gradient-12"/><linearGradient id="linear-gradient-14" x1="551.67" y1="133.51" x2="553.22" y2="137" xlink:href="#linear-gradient-2"/><linearGradient id="linear-gradient-15" x1="-573.16" y1="348.58" x2="-571.67" y2="351.95" gradientTransform="matrix(1.03, 0.2, -0.2, 1.03, 793.9, -121.04)" xlink:href="#linear-gradient-2"/><linearGradient id="linear-gradient-16" x1="644.52" y1="15.07" x2="644.52" y2="13.98" gradientTransform="matrix(-1, 0, 0, 1, 712.93, 0)" gradientUnits="userSpaceOnUse"><stop offset="0" stop-color="#9dd4dd"/><stop offset="1" stop-color="#fff"/></linearGradient><linearGradient id="linear-gradient-17" x1="643.78" y1="14.78" x2="643.78" y2="14.12" gradientTransform="matrix(-1, 0, 0, 1, 712.93, 0)" gradientUnits="userSpaceOnUse"><stop offset="0" stop-color="#0080ae"/><stop offset="1" stop-color="#1a171b"/></linearGradient><linearGradient id="linear-gradient-18" x1="637.73" y1="15.95" x2="637.73" y2="14.67" xlink:href="#linear-gradient-16"/><linearGradient id="linear-gradient-19" x1="637.54" y1="15.19" x2="637.54" y2="14.41" xlink:href="#linear-gradient-17"/></defs><polygon class="cls-1" points="69.16 8.6 71.15 8.17 70.91 7.37 69 7.81 69.16 8.6"/><polygon class="cls-1" points="76.43 8.07 78.12 9.19 78.53 8.47 76.89 7.4 76.43 8.07"/><path class="cls-1" d="M139.07,123.25a3.3,3.3,0,0,0-1.44-.39,20.19,20.19,0,0,1-3.7-7.61c-.61-2.26-1.1-4.53-1.53-6.65a17.84,17.84,0,0,0,2.1-2,25.56,25.56,0,0,0,4.23-6.41A25,25,0,0,0,141,89.81a32.58,32.58,0,0,0-.73-6.55,40.18,40.18,0,0,0-1.69-6.09,37.71,37.71,0,0,0-5.29-9.56,85.67,85.67,0,0,0-7-7.91l-.75-.77a41.58,41.58,0,0,1-3.32-3.69,20.31,20.31,0,0,1-3.12-5.8,16,16,0,0,1-.84-6.55,16.94,16.94,0,0,1,2-6.56,22.44,22.44,0,0,1,4.38-5.76c.38-.36.81-.71,1.22-1l.55-.44.21-.18a2.57,2.57,0,0,0,1-1.23,1.07,1.07,0,0,0-.13-1,1.65,1.65,0,0,0-1.39-.49,11.64,11.64,0,0,0-3.22.64,27,27,0,0,0-11.06,7.55A23.32,23.32,0,0,0,106.35,53c.9,6.65,4.71,12.59,8.21,17.63l1,1.4a53.85,53.85,0,0,1,3.17,4.85c.75,1.37,1.35,2.77.63,3.66a3.44,3.44,0,0,1-2,.94,41.91,41.91,0,0,0-4-1.94,84.17,84.17,0,0,0-9.67-3.2l-.77-.22a19.54,19.54,0,0,1-7.3-3.7A13.89,13.89,0,0,1,91,64.35a74.25,74.25,0,0,1-1.29-10.49c-.25-3.9-.24-7.84-.2-11.18,0-2.71.12-5.47.2-8.13l.09-2.83a42.16,42.16,0,0,0-.68-10.45A10.41,10.41,0,0,0,83,13.77a12.91,12.91,0,0,0-3.24-.87A4.28,4.28,0,0,0,78,10.59,4.52,4.52,0,0,0,75.64,10a5.65,5.65,0,0,0-2.78.75,5.91,5.91,0,0,0-.77.54,3,3,0,0,0-1.68-1.17,5.88,5.88,0,0,0-1.48-.19A5.61,5.61,0,0,0,65.57,11a4.1,4.1,0,0,0-1.41,4.62,3.51,3.51,0,0,0,.22.48c-.95-.09-2-.13-3.14-.13L59.3,16c-1.08,0-2.17.1-3.35.22-.56,0-1.14.11-1.78.2h-.05a.72.72,0,0,0-.45.2,10.35,10.35,0,0,0-1.61,1.94A13,13,0,0,0,50.13,23a17.17,17.17,0,0,0,0,6.49,26.55,26.55,0,0,0,1.67,5.95,18.58,18.58,0,0,0,.91,1.93l.06.09a2.54,2.54,0,0,0,.64.85,5.48,5.48,0,0,0,1.69.81l.15,0a30.81,30.81,0,0,0,3.27.88,48.11,48.11,0,0,0,9.13,1.14l1.3,0h.64c-.3,4.85-.46,9.58-.56,13.2-.32,11-.25,20.09.24,28.44a128.62,128.62,0,0,0,1.4,13.47,37.2,37.2,0,0,0,1.77,7.08c.16.41.34.82.52,1.23a39.59,39.59,0,0,1,.73,11.25,17.91,17.91,0,0,1-1.33,5.66,5.56,5.56,0,0,1-.27.55,4.1,4.1,0,0,0-1.49,3.63C70.87,128,73,129,75.05,129a6.08,6.08,0,0,0,1.22-.12h.07a.57.57,0,0,0,.31-.1l.21-.06a7.65,7.65,0,0,0,2.32-1.3c.68,1.72,2.63,2.35,4.23,2.35a6.06,6.06,0,0,0,1.21-.12h.07a.56.56,0,0,0,.31-.09l.22-.07a8,8,0,0,0,2.4-1.36l.13-.1a3.09,3.09,0,0,0,1.08-1.08,18.84,18.84,0,0,0,1.62-1.4,16.83,16.83,0,0,0,2.61-3.18,15,15,0,0,0,1.45-2.89c.14-.37.27-.76.39-1.2a.19.19,0,0,1,0-.07l.7.07c0,.21-.05.42-.08.63a13.36,13.36,0,0,1-.57,2.53,5.34,5.34,0,0,1-.53,1.19,3.24,3.24,0,0,0-.73.28,3.7,3.7,0,0,0-1.93,3.24c0,2.22,2.17,3.38,4.3,3.38l.47,0h.11a.54.54,0,0,0,.25-.06l.19,0a7.15,7.15,0,0,0,2.28-1l.13-.08a2.77,2.77,0,0,0,1.07-.86c1.23-.47,2.55-1,4.15-1.84a37.19,37.19,0,0,0,8-5c.46-.39.86-.75,1.22-1.12l.49.12a22,22,0,0,1,4.79,2.07c1.43.78,3,1.57,4.5,2.35,2.23,1.12,4.33,2.11,6.4,3l1.81.78a.73.73,0,0,0,.3.06,3,3,0,0,0,1.05.84l.13.07a7.15,7.15,0,0,0,2.28,1l.19,0a.54.54,0,0,0,.25.06h.12l.47,0c2.12,0,4.27-1.16,4.29-3.38A3.7,3.7,0,0,0,139.07,123.25Z"/><path class="cls-2" d="M72.33,122.74s3.71-5.26,1.08-18.57c0,0,9.59.93,10.21,2.17a79.28,79.28,0,0,1,2.47,9.59c0,.46-2.63,7.42-2.63,7.42s-1.54,2.32-2.16,2.17-4.18-.62-4.18-.62Z"/><path class="cls-3" d="M85.9,114.89a75.52,75.52,0,0,0-2.28-8.55c-.62-1.24-10.21-2.17-10.21-2.17a50.61,50.61,0,0,1,.79,5.53c1,.66,5.83,3.94,5.55,5.61-.31,1.86-3.4,7.12-3.4,7.12s-.13,1-.21,2l1,.44s3.56.47,4.18.62,2.16-2.17,2.16-2.17,2-5.19,2.5-6.9c0-.17,0-.35,0-.52C85.92,115.59,85.91,115.24,85.9,114.89Z"/><path class="cls-1" d="M72.39,122.77a8.52,8.52,0,0,0,1-2.31,24.4,24.4,0,0,0,1-7.46,45.4,45.4,0,0,0-1-8.85c0-.1-.16-.06-.15,0a41,41,0,0,1,.81,11.74,18.4,18.4,0,0,1-1.37,5.8,6,6,0,0,1-.51,1c-.06.08.08.16.13.07Z"/><path class="cls-4" d="M71.14,124.85a3.44,3.44,0,0,1,3.43-3c3.08,0,5.42,3.83,5.42,3.83.25.41-2.12,2-2.43,2.14a7.07,7.07,0,0,1-1.22.44v0a5.55,5.55,0,0,1-1.66.17C72.72,128.3,70.89,127,71.14,124.85Z"/><path class="cls-5" d="M77.56,127.81a7.07,7.07,0,0,1-1.22.44v0a5.55,5.55,0,0,1-1.66.17,3.48,3.48,0,0,1-3.54-3,3.71,3.71,0,0,0,3,1.93A8.45,8.45,0,0,0,80,125.79C79.87,126.32,77.85,127.67,77.56,127.81Z"/><path class="cls-1" d="M76.28,128.38a.11.11,0,0,0,.15,0l.3-.09A7.53,7.53,0,0,0,79,127c.28-.22,1.29-.85,1.09-1.33h0s0,0,0,0A10,10,0,0,0,78,123.15c-1.45-1.2-3.64-2.05-5.37-.85A3.66,3.66,0,0,0,71,125.68C71.33,128.11,74.2,128.84,76.28,128.38ZM74.08,122a5.61,5.61,0,0,0-1.22,5.77,2.84,2.84,0,0,1-1.62-2.28,3.29,3.29,0,0,1,.3-1.63A3.18,3.18,0,0,1,74.08,122Zm2.31,6.11a4.46,4.46,0,0,1,1.14-5,9.83,9.83,0,0,1,2.36,2.62c.08.27-.68.8-.83.92a11.7,11.7,0,0,1-1.07.78A5.38,5.38,0,0,1,76.39,128.13Zm-2.18.13a4.86,4.86,0,0,1-1.14-.36.12.12,0,0,0,0-.1A5.36,5.36,0,0,1,74.43,122a4.55,4.55,0,0,1,2.63.77l.29.2a4.68,4.68,0,0,0-1.17,5.23A4.85,4.85,0,0,1,74.21,128.26Z"/><path class="cls-6" d="M77.17,123.48a5.26,5.26,0,0,0-.59.86c.49.07.8,0,.85-.2A.89.89,0,0,0,77.17,123.48Zm-4,.16c.45.15,1.15.26,1.9.41.47.09.89.19,1.24.25a5.17,5.17,0,0,1,.67-1,3.14,3.14,0,0,0-1.63-.86,3.65,3.65,0,0,0-1.44,0A4.65,4.65,0,0,0,73.21,123.64Zm-.2-.08a4.68,4.68,0,0,1,.58-1c-.48.17-.82.41-.86.63S72.81,123.47,73,123.56Z"/><path class="cls-7" d="M73,123.56a.93.93,0,0,0,.2.08,4.65,4.65,0,0,1,.74-1.16l-.36.1A4.68,4.68,0,0,0,73,123.56Zm4-.24a5.17,5.17,0,0,0-.67,1l.23,0a5.26,5.26,0,0,1,.59-.86Z"/><path class="cls-8" d="M100.17,127.07s11.14-4.18,14.85-9.75-18.72-1.7-18.72-1.7,0,6.5-2.16,8Z"/><path class="cls-3" d="M115,117.32c3.72-5.57-18.72-1.7-18.72-1.7a25.79,25.79,0,0,1-.42,4.34l.12.15s7.12-1.21,7.89,0c1.08,1.7-5.88,5-5.88,5l.25.93,1.91,1.08S111.31,122.89,115,117.32Z"/><path class="cls-1" d="M100.19,127.14c1.48-.55,2.93-1.22,4.34-1.91a37.67,37.67,0,0,0,7.9-5,12.89,12.89,0,0,0,2.77-3.08,1.6,1.6,0,0,0,.21-1.45,2,2,0,0,0-1.17-.92,8.82,8.82,0,0,0-2.27-.47,35.86,35.86,0,0,0-6.47.07c-2.09.15-4.18.4-6.26.68-1,.14-2,.29-3,.45a.09.09,0,0,0,0,.08,24.31,24.31,0,0,1-.25,3.3,15.64,15.64,0,0,1-.59,2.61,4.13,4.13,0,0,1-1.29,2.07c-.08.06,0,.19.08.13a5.21,5.21,0,0,0,1.61-3,20.35,20.35,0,0,0,.55-3.81c0-.37,0-.74,0-1.11,0-.18,0-.09,0-.08h.06l1.16-.18a77,77,0,0,1,12.21-1.11,21.81,21.81,0,0,1,2.92.19,5.66,5.66,0,0,1,2,.62c1.64,1-.31,2.92-1.1,3.74a30,30,0,0,1-7.83,5.49,53.22,53.22,0,0,1-5.49,2.51l-.13,0c-.09,0-.05.19,0,.15Z"/><path class="cls-9" d="M92.39,125.37A3.07,3.07,0,0,1,95.73,123c2.74.28,4.43,3.93,4.43,3.93.18.39-2.08,1.56-2.37,1.66a5.23,5.23,0,0,1-1.12.27v0a5,5,0,0,1-1.49,0C93.45,128.59,92,127.24,92.39,125.37Z"/><path class="cls-5" d="M97.79,128.63a5.23,5.23,0,0,1-1.12.27v0a5,5,0,0,1-1.49,0,3.1,3.1,0,0,1-2.84-3,3.28,3.28,0,0,0,2.43,2,7.5,7.5,0,0,0,5.41-.76C100,127.54,98.06,128.54,97.79,128.63Z"/><path class="cls-1" d="M96.6,129a.11.11,0,0,0,.14,0l.27,0a6.7,6.7,0,0,0,2.14-.93c.28-.16,1.23-.63,1.11-1.06h0v0a9.36,9.36,0,0,0-1.65-2.39c-1.16-1.21-3-2.18-4.68-1.29a3.26,3.26,0,0,0-1.7,2.84C92.24,128.28,94.71,129.22,96.6,129Zm-1.32-5.86a5,5,0,0,0-1.66,5A2.54,2.54,0,0,1,92.41,126a3.1,3.1,0,0,1,.43-1.42A2.84,2.84,0,0,1,95.28,123.15Zm1.44,5.66a4,4,0,0,1,1.51-4.36,8.56,8.56,0,0,1,1.84,2.55c.05.25-.68.65-.83.74-.33.21-.68.4-1,.58A5,5,0,0,1,96.72,128.81Zm-1.94-.11a4.06,4.06,0,0,1-1-.43.08.08,0,0,0,0-.08,4.8,4.8,0,0,1,1.77-5,4.14,4.14,0,0,1,2.26.94l.24.21a4.17,4.17,0,0,0-1.56,4.52A4.29,4.29,0,0,1,94.78,128.7Z"/><path class="cls-6" d="M97.87,124.76a4.37,4.37,0,0,0-.6.7c.43.11.71.12.77-.09A.76.76,0,0,0,97.87,124.76Zm-3.52-.26a16.22,16.22,0,0,0,1.65.56l1.07.34a4.65,4.65,0,0,1,.69-.8,2.88,2.88,0,0,0-1.36-.93,3.18,3.18,0,0,0-1.28-.12A4.28,4.28,0,0,0,94.35,124.5Zm-.18-.09a4.36,4.36,0,0,1,.62-.81c-.45.1-.77.29-.83.48S94,124.31,94.17,124.41Z"/><path class="cls-7" d="M94.17,124.41l.18.09a4.28,4.28,0,0,1,.77-1l-.33,0A4.36,4.36,0,0,0,94.17,124.41Zm3.59.19a4.65,4.65,0,0,0-.69.8l.2.06a4.37,4.37,0,0,1,.6-.7A.91.91,0,0,0,97.76,124.6Z"/><path class="cls-10" d="M131.87,108.33l0,0a24.43,24.43,0,0,0,8.35-22c-1.86-14.23-8.82-20.57-16.55-28.62a20.3,20.3,0,0,1-6-12.83,18.27,18.27,0,0,1,4-11.86,25.54,25.54,0,0,1,2.55-2.87,32.5,32.5,0,0,0,2.84-2.52c.57-1.5-2.29-.87-2.93-.7-3.56.93-18.1,7.27-17.48,23.82S127.61,80.19,117.23,82c-5.53-3.1-11.59-4.52-15.51-5.69a17.27,17.27,0,0,1-8.78-6c-2.3-3.09-2.67-6.75-3.18-10.45-1-7.3-.85-14.63-.71-22,.1-5.25.64-10.72-.33-15.92C87,12.9,78.2,13.36,78.2,13.36l-.89,3-6.38-2.55-5.1,2.94a44.22,44.22,0,0,0-11.76.15,12.35,12.35,0,0,0-3.71,8.51c-.16,5.41,2.16,11,3.25,12.37.74,1,8.84,3.15,16.54,2.89-.13,2.16-2.5,40.36,1.71,59A20.78,20.78,0,0,0,82,113.75a31,31,0,0,1-2,11.31L88,126.91a16.07,16.07,0,0,0,6.58-9.32c3.6.44,6.62.41,8.12.5,5.51.35,10.64-.24,15.62,2.48a147.66,147.66,0,0,0,13.93,6.81l6.49-2.63C134.37,120.76,133.46,116.21,131.87,108.33Z"/><path class="cls-11" d="M89.76,59.93c-1-7.3-.85-14.63-.71-22,.1-5.25.64-10.72-.33-15.92C87,12.9,78.2,13.36,78.2,13.36l-.89,3-6.38-2.55-5.1,2.94a44.22,44.22,0,0,0-11.76.15,12.35,12.35,0,0,0-3.71,8.51c-.16,5.41,2.16,11,3.25,12.37.74,1,8.84,3.15,16.54,2.89-.07,1.17-.8,13-.78,26.58,5.3-.52,14.73-1.48,21.21-2.31C90.2,63.32,90,61.63,89.76,59.93Z"/><path class="cls-12" d="M69.86,80.82l-.16.32a115.72,115.72,0,0,0,2.16,18.55,20.75,20.75,0,0,0,10.08,14l.45-4.1C72,106.35,69.86,80.82,69.86,80.82Z"/><path class="cls-13" d="M104.2,113.31a29.05,29.05,0,0,1-13.45-4.64l.92,3c.47,9.52-5.56,13-5.56,13l-.39,1.71,2.23.52a16.07,16.07,0,0,0,6.58-9.32c3.6.44,6.62.41,8.12.5,5.51.35,10.64-.24,15.62,2.48a147.66,147.66,0,0,0,13.93,6.81l3.71-1.51A50.86,50.86,0,0,1,124.46,119C120.2,115.64,112.39,113.76,104.2,113.31Z"/><path class="cls-14" d="M140.24,86.38c-1.86-14.23-8.82-20.57-16.55-28.62a20.3,20.3,0,0,1-6-12.83,18.27,18.27,0,0,1,4-11.86,25.54,25.54,0,0,1,2.55-2.87c.5-.48,1.58-1.3,2.25-1.9-2.47.83-6.13,2.91-8.84,8.11-4.17,8.05-1.85,16,5.06,24.45S133.23,74.37,135,84.37a21.1,21.1,0,0,1-4.64,16.91l1.55,7,0,0A24.44,24.44,0,0,0,140.24,86.38Z"/><path class="cls-3" d="M140.46,89.21a2.44,2.44,0,0,1,0-.27c0-.12,0-.24,0-.36a2.44,2.44,0,0,0,0-.27c0-.12,0-.25,0-.38a2.11,2.11,0,0,1,0-.25c0-.14,0-.29,0-.43a1.5,1.5,0,0,1,0-.22c0-.21,0-.43-.08-.65-1.86-14.23-8.82-20.57-16.55-28.62a20.3,20.3,0,0,1-6-12.83c0-.19,0-.37,0-.55v-.72c0-.17,0-.34,0-.51V43c0-.18,0-.36,0-.54v-.06c0-.17,0-.33.07-.5s0-.07,0-.1l.09-.55v-.05c0-.17.07-.34.11-.51v-.07c0-.19.09-.37.13-.55l0-.05c0-.17.09-.35.14-.53v0l.18-.56v0c.12-.37.26-.74.41-1.11v0c.15-.37.31-.73.49-1.09v0c.18-.36.36-.72.56-1.07h0a14.9,14.9,0,0,0-2.82,12.52c1.9,7.3,7.69,11.93,12,17.78a46.28,46.28,0,0,1,8.9,21.66c1.17,9.52-4.81,16.1-6.8,18l.61,2.75,0,0,0,0h0l0,0,0,0,0,0,0,0,0,0,0,0,.06,0,0,0,.07-.06,0,0,.08-.07,0,0,.08-.08,0,0,.09-.09,0,0,.1-.09,0,0,.1-.1,0,0,.12-.11,0,0,.12-.12,0,0,.12-.13.05,0,.13-.14.05,0,.13-.15.05,0,.14-.15.05-.05.15-.16,0,0,.16-.18,0-.05.16-.19,0,0c.06-.06.11-.13.17-.2l0,0,.17-.22,0,0a1.55,1.55,0,0,0,.19-.24l0,0,.2-.27h0a24.37,24.37,0,0,0,1.52-2.25l0,0,.2-.34,0-.06.18-.31a.59.59,0,0,0,0-.08l.16-.29.06-.11.15-.28.06-.12.14-.28.06-.13.13-.28.07-.14.12-.28.07-.15.12-.28.06-.16.12-.27.06-.18.11-.27a1.34,1.34,0,0,1,.07-.18c0-.09.06-.19.1-.28l.06-.19c0-.09.07-.18.1-.28l.06-.19.09-.28.06-.21c0-.09.05-.19.08-.28l.06-.21.08-.29.05-.21c0-.1,0-.2.07-.29a1.89,1.89,0,0,0,.05-.23,2.46,2.46,0,0,0,.07-.29c0-.08,0-.15,0-.23l.06-.3c0-.07,0-.15,0-.23s0-.2,0-.3,0-.16,0-.24,0-.2.05-.31l0-.24c0-.11,0-.21,0-.31l0-.25,0-.32a2.11,2.11,0,0,0,0-.25l0-.32a2.28,2.28,0,0,1,0-.26c0-.11,0-.22,0-.33s0-.17,0-.26,0-.22,0-.33V89.21Z"/><path class="cls-3" d="M105.6,115.86c-9-.93-12.07-2.78-12.07-2.78l-.46,1.85c-.24,8.12-6.5,10.68-6.5,10.68l.94,1.2.44.1a16.07,16.07,0,0,0,6.58-9.32c3.6.44,6.62.41,8.12.5,5.51.35,10.64-.24,15.62,2.48a147.66,147.66,0,0,0,13.93,6.81l2.56-1a34.55,34.55,0,0,1-12-5.73C117.2,116.79,111.52,116.47,105.6,115.86Z"/><path class="cls-3" d="M71.94,100h0c0,.21.11.42.16.63h0a24.08,24.08,0,0,0,1.23,3.51h0l.24.53h0c.08.17.16.34.25.5v0l.25.49,0,0c.08.16.17.31.26.47l0,0c.08.15.17.3.26.44l0,0,.27.41,0,.06.27.39a.43.43,0,0,0,0,.07l.27.37.06.08c.08.12.17.23.26.34a.86.86,0,0,1,.07.1l.26.31a.44.44,0,0,0,.08.11l.25.29.1.12.24.27.13.13.22.25.15.14.21.22.17.16.2.19.18.18.19.16.21.19.17.14.23.2.15.12.26.21.13.1.29.22.11.08.31.23.09.06.34.24.06,0,.38.25,0,0,.4.25h0l.43.25h0l.24-2.22C77.75,110.06,74.25,105.64,71.94,100Z"/><path class="cls-15" d="M82.48,40.33c-1.85,1.34-5.15.83-5.15.83a14.34,14.34,0,0,0,3.3-2.07,22.41,22.41,0,0,0,5.16-13.71,23.61,23.61,0,0,1-6,13c-2.47,1.84-8.37,2.28-9.65,2.36-.07,1.12-.55,9-.72,19l10.64-1.63C79.61,50.66,82.48,40.33,82.48,40.33Z"/><path class="cls-16" d="M110.16,62.6c.48.92,1,1.81,1.52,2.68a1.67,1.67,0,0,0,.89-2.12A1.53,1.53,0,0,0,110.16,62.6Zm-.41-10.14a1.82,1.82,0,0,0,1,1.81c1.25.52,2.26-1,1.82-2.09A1.47,1.47,0,0,0,109.75,52.46ZM111,43.61c.83-.34.6-1.51-.13-1.83a1,1,0,0,0-1.18,1.45A1.19,1.19,0,0,0,111,43.61ZM90.11,71.16c-1-2.49-4.92-2.29-5.25.53a3.38,3.38,0,0,0,1.87,3.36C89.05,76,90.93,73.24,90.11,71.16Zm27.77,3.36A14.1,14.1,0,0,1,120.11,79a2.81,2.81,0,0,0,1.19-.19c2.26-.91,1.64-4.12-.34-5A2.7,2.7,0,0,0,117.88,74.52ZM89.14,78.14A1.47,1.47,0,0,0,90,79.59c1,.42,1.81-.78,1.46-1.68A1.18,1.18,0,0,0,89.14,78.14Zm36.18-5.07c1.71-.69,1.24-3.11-.26-3.76-1.8-.78-3.74,1.37-2.44,3A2.44,2.44,0,0,0,125.32,73.07ZM114.14,61.93c2.09.89,3.8-1.63,3.06-3.51-.89-2.26-4.46-2.07-4.75.48A3,3,0,0,0,114.14,61.93Zm5.42,1.35c.83-.34.6-1.51-.12-1.82a1,1,0,0,0-1.19,1.45A1.2,1.2,0,0,0,119.56,63.28Zm-.28,3.88c-1.15-2.9-5.53-2.86-6.41,0,1.18,1.82,2.38,3.51,3.45,5C118.58,72.19,120.15,69.36,119.28,67.16Zm-28.66-2c-.4-1.7-.61-3.46-.86-5.23-.16-1.16-.29-2.33-.4-3.49a3.73,3.73,0,0,0-3.15,1.93,5.14,5.14,0,0,0,.54,5.85A3.51,3.51,0,0,0,90.62,65.16Zm25.18,16.1A46.31,46.31,0,0,0,110,78.84a3.08,3.08,0,0,0-1,2A4.19,4.19,0,0,0,111.36,85C113.85,86.05,115.93,83.61,115.8,81.26Zm12.6-.51c2.47-1,1.8-4.5-.37-5.44-2.61-1.13-5.4,2-3.54,4.33A3.57,3.57,0,0,0,128.4,80.75Zm-12.65,6.14A2.23,2.23,0,0,0,117,89.1c1.53.65,2.77-1.19,2.23-2.56A1.81,1.81,0,0,0,115.75,86.89ZM129,83.29a1.37,1.37,0,0,0-1.67,2,1.66,1.66,0,0,0,1.84.52C130.31,85.38,130,83.73,129,83.29Zm-35.67.6a4.39,4.39,0,0,0,2.44,4.38c3,1.28,5.48-2.37,4.41-5.08C98.87,79.94,93.73,80.21,93.3,83.89ZM106.41,89a3.23,3.23,0,0,0,1.8,3.23c2.23.94,4-1.74,3.25-3.74C110.51,86.12,106.72,86.32,106.41,89Zm-3.83-4.56a1.51,1.51,0,0,0,.83,1.5c1,.44,1.88-.81,1.52-1.74A1.23,1.23,0,0,0,102.58,84.47Zm3.83-6.63a.75.75,0,0,0-.08-.18c-1-.29-1.89-.55-2.74-.79a1.7,1.7,0,0,0-.87,1.34A2.36,2.36,0,0,0,104,80.57C105.66,81.26,107,79.3,106.41,77.84ZM92.94,70.38h0A5.26,5.26,0,0,0,92.47,72a6.72,6.72,0,0,0,3.73,6.7,4.81,4.81,0,0,0,6.16-2.22l-.64-.18A17.27,17.27,0,0,1,92.94,70.38Zm29.73,11.14a2,2,0,0,0-2.73,2.14c.68.49,1.43,1.1,2,1.62a2,2,0,0,0,.94-.12C124.57,84.49,124.12,82.15,122.67,81.52Z"/><path class="cls-17" d="M119.2,29.61c-12.38,7.58-11.91,17.79-11.91,17.79C110.69,37,119.2,29.61,119.2,29.61Z"/><path class="cls-17" d="M109.42,79.6a2,2,0,0,1,.19-.31c-1-.24-1.56-.33-1.56-.33C108.51,79.16,109,79.38,109.42,79.6Zm6.38,2.06a4.24,4.24,0,0,1-.45,1.67c.88.67,1.71,1.38,2.5,2.1a1.81,1.81,0,0,1,1.37,1.11,1.47,1.47,0,0,1,.08.28,51.52,51.52,0,0,1,9.82,13.94A24.35,24.35,0,0,0,115.8,81.66Z"/><path class="cls-18" d="M109.42,79.6a34.2,34.2,0,0,1,5.93,3.73,4.24,4.24,0,0,0,.45-1.67,29,29,0,0,0-6.19-2.37A2,2,0,0,0,109.42,79.6Zm9.8,6.94a1.81,1.81,0,0,0-1.37-1.11c.5.46,1,.92,1.45,1.39A1.47,1.47,0,0,0,119.22,86.54Z"/><path class="cls-19" d="M84.31,16.11c-.13.33-.73,0-1.52-.32s-1.45-.47-1.33-.8.87-.34,1.66,0S84.44,15.78,84.31,16.11Z"/><path class="cls-20" d="M57.47,16.53a67.45,67.45,0,0,1,7.38,1.22c4,1,12.89.41,14.05,3.35s-9.82,4-9.82,4L55.85,19l-1.7-2.17Z"/><path class="cls-21" d="M75,40.05c4.49-4.57,6.11-16.94,3.79-19.26S68.54,19.71,64,18.39a49.51,49.51,0,0,0-9.52-1.52l-.38.05a12.35,12.35,0,0,0-3.71,8.51c-.16,5.41,2.16,11,3.25,12.37.74,1,8.84,3.15,16.54,2.89v.06h0A44.53,44.53,0,0,0,75,40.05Z"/><path class="cls-22" d="M54.84,36.44c-2.08-1.69-2.84-4.18-3.48-7.37-.35-1.74-1.08-4.48-.64-6.27a12.46,12.46,0,0,0-.36,2.63c-.16,5.41,2.16,11,3.25,12.37.74,1,8.84,3.15,16.54,2.89v.06h0l.46,0a22.6,22.6,0,0,1,3-.48C68.35,40.71,63,39.61,58,38A9.41,9.41,0,0,1,54.84,36.44Z"/><path class="cls-23" d="M73,22.8a2.64,2.64,0,0,1,1.69-2.47h-.07a3.15,3.15,0,1,0,2.91,4.36A2.66,2.66,0,0,1,73,22.8Z"/><path class="cls-24" d="M74.66,20.33a2.65,2.65,0,1,0,2.84,4.35,3.22,3.22,0,0,0,.24-1.21A3.13,3.13,0,0,0,74.66,20.33Z"/><path class="cls-25" d="M55.33,21.79A2.67,2.67,0,0,1,57,19.32H57a3.15,3.15,0,1,0,2.9,4.36,2.66,2.66,0,0,1-4.53-1.89Z"/><path class="cls-26" d="M57,19.32a2.66,2.66,0,1,0,2.84,4.36A3.15,3.15,0,0,0,57,19.32Z"/><path class="cls-1" d="M133.51,115.37c-.62-2.29-1.12-4.62-1.59-7h0a17.12,17.12,0,0,0,2.26-2.16,25.25,25.25,0,0,0,4.15-6.31,24.27,24.27,0,0,0,2.21-10.14,32.8,32.8,0,0,0-.72-6.47,39.2,39.2,0,0,0-1.67-6,37.16,37.16,0,0,0-5.23-9.45A83.61,83.61,0,0,0,126,60a50,50,0,0,1-4.11-4.51,21.14,21.14,0,0,1-3.19-5.91,16.76,16.76,0,0,1-.86-6.74,17.74,17.74,0,0,1,2-6.73,23.38,23.38,0,0,1,4.46-5.86c.56-.54,1.2-1,1.8-1.51.38-.32,1-.69,1.11-1.19.49-1.7-3.39-.59-4.18-.31a26.59,26.59,0,0,0-10.87,7.43,23,23,0,0,0-5.37,18.26c.88,6.47,4.49,12.18,8.14,17.44a71.46,71.46,0,0,1,4.18,6.29c.62,1.13,1.57,2.94.59,4.14a4,4,0,0,1-2.45,1.13,39.12,39.12,0,0,0-4.12-2,92,92,0,0,0-10.39-3.4,19.77,19.77,0,0,1-7.46-3.79,14.43,14.43,0,0,1-4.73-8.31,74.71,74.71,0,0,1-1.3-10.55C89,50.16,89,46.41,89,42.67s.19-7.31.29-11a41.09,41.09,0,0,0-.67-10.33,10,10,0,0,0-5.86-7.19,10.82,10.82,0,0,0-4.6-.89c-.09,0-.1.15,0,.15a10.79,10.79,0,0,1,6.2,1.76c4.92,3.21,4.88,10,4.8,15.2,0,3.64-.23,7.28-.29,10.92s-.08,7.49.1,11.23A96.5,96.5,0,0,0,90.12,63a16.3,16.3,0,0,0,3.45,8.31A17.58,17.58,0,0,0,101,76.18c1.6.56,3.26.95,4.88,1.42A55.51,55.51,0,0,1,117,82c-.09,0-.05.16,0,.14l.16,0a25.52,25.52,0,0,1,9.62,9,26.81,26.81,0,0,1,2.86,7.56c.72,3,1.35,6,2,9a71.86,71.86,0,0,0,2.48,10.25,17.29,17.29,0,0,0,4.41,6.83l-3.49,1.42-2.25.9-.56.23c-.1,0,0,0-.11,0-3.8-1.56-7.49-3.41-11.13-5.32a31.23,31.23,0,0,0-6.62-3,31.18,31.18,0,0,0-6.74-.78c-4.37-.14-8.78-.15-13.12-.67a.07.07,0,0,0-.08,0,14.68,14.68,0,0,1-2.78,5.69,18,18,0,0,1-3.42,3.34c-.27.21-.23.25-.51.18L87,126.6l-5.09-1.2L80.21,125h0c.08-.19.15-.39.22-.59a32,32,0,0,0,1.56-7c.09-.8.14-1.61.16-2.42,0-.43,0-.85,0-1.27,0-.13-.32-.23-.41-.28a21.72,21.72,0,0,1-3-2.19,20,20,0,0,1-4.82-6.21,27.25,27.25,0,0,1-2.34-7.55A113.24,113.24,0,0,1,70,84.14c-.32-4.92-.45-9.85-.49-14.78-.07-8.08.13-16.15.53-24.22.07-1.46.14-2.91.24-4.37.68,0,1.36-.07,2-.14h0c2.54,3,7.71,2.42,10.32-.15a.08.08,0,0,0-.11-.11c-2.53,2.49-7.51,3-10,.24a22.58,22.58,0,0,0,4.74-1,14.18,14.18,0,0,0,2-.81,2.4,2.4,0,0,0,.72-.44c.43-.46.83-1,1.22-1.45C84.92,32,87,25.48,84.93,19.38a.09.09,0,0,0-.06-.06,3.72,3.72,0,0,1,1.2,0c.1,0,.14-.14,0-.15a3.73,3.73,0,0,0-2.53.47c-.09.05,0,.18.08.13a3.65,3.65,0,0,1,1.16-.44.08.08,0,0,0,0,.09,16.44,16.44,0,0,1-.19,10.88,23.78,23.78,0,0,1-3.9,6.92c-.31.39-.63.77-1,1.14a2.22,2.22,0,0,1-.53.28,10.9,10.9,0,0,1-1.1.5,16.53,16.53,0,0,1-2.16.71,27.16,27.16,0,0,1-5.68.77v0c0-.1-.15-.1-.16,0v0c-1.33,0-2.67,0-4-.08a46.8,46.8,0,0,1-8.72-1.35,21.66,21.66,0,0,1-2.73-.87,4.32,4.32,0,0,1-.77-.4,2.15,2.15,0,0,1-.59-.77,20.69,20.69,0,0,1-1.87-4.69,23.75,23.75,0,0,1-1-6.75,12.47,12.47,0,0,1,3.33-8.38l.35-.34s0,0,.11,0,.5-.07.75-.09c.48-.06,1-.11,1.45-.15,1.63-.15,3.28-.21,4.92-.2a31.77,31.77,0,0,1,4.47.3c.1,0,.14-.13,0-.15a35.78,35.78,0,0,0-6.54-.28c-1.11,0-2.21.11-3.32.21l-1.77.2c-.14,0-.17,0-.26.09a11,11,0,0,0-1.54,1.86,12.82,12.82,0,0,0-1.86,4.35,17,17,0,0,0,0,6.32,27.15,27.15,0,0,0,1.64,5.86,14.6,14.6,0,0,0,.9,1.87,2.5,2.5,0,0,0,.58.82,5.89,5.89,0,0,0,1.71.78,32.79,32.79,0,0,0,3.23.88,49,49,0,0,0,9,1.12c.8,0,1.6,0,2.4,0-.29,4.55-.47,9.1-.6,13.66-.27,9.46-.3,18.95.25,28.4a125.57,125.57,0,0,0,1.4,13.42,35.67,35.67,0,0,0,1.74,7,20.92,20.92,0,0,0,4.08,6.59,20.41,20.41,0,0,0,3.46,3q.48.33,1,.63l.49.29c.18.11.1.69.1.86a26.81,26.81,0,0,1-.21,3.23A28.45,28.45,0,0,1,80,125s0,.08.05.09L87.83,127c.22.06.31-.09.5-.23a20.68,20.68,0,0,0,1.82-1.55,16.46,16.46,0,0,0,2.54-3.1,14.69,14.69,0,0,0,1.41-2.8,12,12,0,0,0,.37-1.16c.06-.21,0-.45.28-.42l1.52.15c2.79.26,5.61.32,8.4.41,3.31.12,6.64.07,9.86.91a21.84,21.84,0,0,1,4.89,2.11q2.22,1.2,4.49,2.33,3.15,1.59,6.37,3l1.8.77c.32.13.93-.28,1.21-.39l5.42-2.2a.08.08,0,0,0,0-.13A19,19,0,0,1,133.51,115.37Zm-3.28-15.13a34.82,34.82,0,0,0-2.56-7.93,22.26,22.26,0,0,0-4-5.52,27.56,27.56,0,0,0-6.25-4.74c1.26-.25,2.65-.8,2.8-2.23a4.47,4.47,0,0,0-.44-2.06,17.81,17.81,0,0,0-1.43-2.61c-1.47-2.32-3.12-4.51-4.65-6.79A52.25,52.25,0,0,1,109,59.89a25.49,25.49,0,0,1-2.23-10A22.84,22.84,0,0,1,109,39.56a25.14,25.14,0,0,1,11.19-10.92A18.36,18.36,0,0,1,124.42,27a7.24,7.24,0,0,1,1.79-.21A1.2,1.2,0,0,1,127,27c.22.22.08.6-.09.79a14,14,0,0,1-1.7,1.47,20.17,20.17,0,0,0-2.07,2,19.84,19.84,0,0,0-5.49,12.15,18.93,18.93,0,0,0,4.1,12.18,47.19,47.19,0,0,0,4,4.38c1.24,1.28,2.47,2.57,3.67,3.9a47.39,47.39,0,0,1,6.32,8.52,37.33,37.33,0,0,1,4,11.27,27.76,27.76,0,0,1-.12,12.27,24.13,24.13,0,0,1-7.37,12l-.36.29C131.35,105.58,130.84,102.9,130.23,100.24Z"/><path class="cls-27" d="M79.5,125.63a3.42,3.42,0,0,1,3.42-3c3.08,0,5.42,3.82,5.42,3.82.25.41-2.11,2-2.43,2.14a6.78,6.78,0,0,1-1.22.44v0l0,0a5.51,5.51,0,0,1-1.66.16C81.08,129.08,79.25,127.76,79.5,125.63Z"/><path class="cls-5" d="M85.91,128.58a6.78,6.78,0,0,1-1.22.44v0l0,0a5.51,5.51,0,0,1-1.66.16,3.45,3.45,0,0,1-3.53-3,3.69,3.69,0,0,0,3,1.93,8.45,8.45,0,0,0,5.92-1.52C88.22,127.1,86.2,128.44,85.91,128.58Z"/><path class="cls-1" d="M84.63,129.15a.12.12,0,0,0,.16,0l.29-.08a7.66,7.66,0,0,0,2.27-1.3c.29-.22,1.29-.85,1.1-1.32h0v0a10.19,10.19,0,0,0-2.13-2.45c-1.45-1.21-3.65-2.05-5.38-.86a3.67,3.67,0,0,0-1.54,3.38C79.68,128.88,82.56,129.61,84.63,129.15Zm-2.2-6.36a5.61,5.61,0,0,0-1.22,5.77,2.84,2.84,0,0,1-1.62-2.27,3.37,3.37,0,0,1,.31-1.63A3.15,3.15,0,0,1,82.43,122.79Zm2.31,6.12a4.49,4.49,0,0,1,1.14-5,9.79,9.79,0,0,1,2.36,2.61c.09.27-.67.81-.82.93q-.53.41-1.08.78A5.8,5.8,0,0,1,84.74,128.91Zm-2.17.12a4.2,4.2,0,0,1-1.14-.36.13.13,0,0,0,0-.09,5.36,5.36,0,0,1,1.34-5.81,4.47,4.47,0,0,1,2.63.76l.29.21A4.66,4.66,0,0,0,84.53,129,4.64,4.64,0,0,1,82.57,129Z"/><path class="cls-6" d="M85.52,124.26a5.19,5.19,0,0,0-.59.85c.49.07.81,0,.86-.2A.93.93,0,0,0,85.52,124.26Zm-4,.15a17.28,17.28,0,0,0,1.91.41c.47.1.88.19,1.23.25a5.68,5.68,0,0,1,.67-1,3.17,3.17,0,0,0-1.63-.86,3.65,3.65,0,0,0-1.44,0A5,5,0,0,0,81.56,124.41Zm-.2-.08a4.68,4.68,0,0,1,.58-1c-.48.17-.81.42-.85.63S81.16,124.24,81.36,124.33Z"/><path class="cls-7" d="M81.36,124.33l.2.08a5,5,0,0,1,.74-1.16l-.36.1A4.68,4.68,0,0,0,81.36,124.33Zm4-.24a5.68,5.68,0,0,0-.67,1l.23,0a5.19,5.19,0,0,1,.59-.85A1.14,1.14,0,0,0,85.37,124.09Z"/><path class="cls-28" d="M140.39,125.76a3.07,3.07,0,0,0-3.34-2.33c-2.73.28-4.43,3.93-4.43,3.93-.18.39,2.08,1.56,2.37,1.66a5.38,5.38,0,0,0,1.12.27l0,0v0a4.89,4.89,0,0,0,1.48,0C139.33,129,140.82,127.63,140.39,125.76Z"/><path class="cls-5" d="M135,129a5.38,5.38,0,0,0,1.12.27l0,0v0a4.89,4.89,0,0,0,1.48,0,3.1,3.1,0,0,0,2.84-3,3.27,3.27,0,0,1-2.43,2,7.5,7.5,0,0,1-5.41-.76C132.8,127.93,134.72,128.93,135,129Z"/><path class="cls-1" d="M140.56,126.48a3.27,3.27,0,0,0-1.69-2.84c-1.66-.89-3.52.08-4.69,1.29a9.19,9.19,0,0,0-1.65,2.39v0h0c-.12.43.84.9,1.11,1.06a6.7,6.7,0,0,0,2.14.93l.27,0a.11.11,0,0,0,.14,0C138.07,129.61,140.55,128.67,140.56,126.48Zm-.62-1.54a3.1,3.1,0,0,1,.43,1.42,2.54,2.54,0,0,1-1.21,2.18,5,5,0,0,0-1.66-5A2.84,2.84,0,0,1,139.94,124.94Zm-5.37,3.77a10.44,10.44,0,0,1-1-.58c-.15-.09-.87-.49-.82-.74a8.53,8.53,0,0,1,1.83-2.55,4,4,0,0,1,1.51,4.36A5.12,5.12,0,0,1,134.57,128.71Zm1.68.51a4.18,4.18,0,0,0-1.55-4.52l.24-.21a4.08,4.08,0,0,1,2.25-.94,4.8,4.8,0,0,1,1.77,5,.08.08,0,0,0,0,.08,4.06,4.06,0,0,1-1,.43A4.13,4.13,0,0,1,136.25,129.22Z"/><path class="cls-6" d="M134.74,125.76c.07.21.35.2.78.09a5,5,0,0,0-.61-.7A.76.76,0,0,0,134.74,125.76Zm2.92-1.82a3.18,3.18,0,0,0-1.28.12A2.88,2.88,0,0,0,135,125a4.65,4.65,0,0,1,.69.8l1.08-.34c.65-.21,1.26-.38,1.65-.56A4.33,4.33,0,0,0,137.66,123.94Zm1.16.53c-.06-.19-.38-.38-.82-.48a4.3,4.3,0,0,1,.61.81C138.77,124.7,138.86,124.59,138.82,124.47Z"/><path class="cls-7" d="M138,124l-.34,0a4.33,4.33,0,0,1,.78,1l.17-.09A4.3,4.3,0,0,0,138,124Zm-3.09,1.16a5,5,0,0,1,.61.7l.19-.06a4.65,4.65,0,0,0-.69-.8A.91.91,0,0,0,134.91,125.15Z"/><path class="cls-29" d="M64.64,15.41a3.53,3.53,0,0,1,1.63-4.29c1.46-.85,4.25-1.08,5.33.31a4.36,4.36,0,0,1,.76,3c-.09.88-.47,2.07-1.35,2.39a18.1,18.1,0,0,1-2.77.55A3.08,3.08,0,0,1,64.64,15.41Z"/><path class="cls-30" d="M71,16.8a18.1,18.1,0,0,1-2.77.55A3.09,3.09,0,0,1,64.94,16c1.93,1.72,6.43,0,6.43,0l.41.16A1.6,1.6,0,0,1,71,16.8Z"/><path class="cls-1" d="M64.57,15.43a3.63,3.63,0,0,1,1.26-4.11,5.41,5.41,0,0,1,4.47-.79c1.68.45,2.27,2.29,2.14,3.88a3.59,3.59,0,0,1-.82,2.08,4.45,4.45,0,0,1-2.53.81,4.89,4.89,0,0,1-2.86-.08,3.18,3.18,0,0,1-1.66-1.79c0-.09.11-.13.15,0a3,3,0,0,0,1.86,1.8A6.44,6.44,0,0,0,69.69,17a5.19,5.19,0,0,0,1.45-.39,2.06,2.06,0,0,0,.91-1.19,4.65,4.65,0,0,0,0-2.88,2.69,2.69,0,0,0-1.84-1.91,5.2,5.2,0,0,0-2.6,0,3.73,3.73,0,0,0-3.14,3.81,3.45,3.45,0,0,0,.2.9C64.75,15.48,64.6,15.52,64.57,15.43Z"/><path class="cls-31" d="M67,14.08A2.11,2.11,0,1,0,69.15,12,2.1,2.1,0,0,0,67,14.08Z"/><path class="cls-1" d="M67.66,14.08a1.49,1.49,0,1,0,1.49-1.49A1.48,1.48,0,0,0,67.66,14.08Z"/><path class="cls-6" d="M68,13.37c0,.65.4.26,1.06.26s1.32.39,1.32-.26a1.19,1.19,0,1,0-2.38,0Z"/><path class="cls-6" d="M68.86,15.26c0,.11.14.2.31.2s.3-.09.3-.2-.14-.2-.3-.2S68.86,15.15,68.86,15.26Z"/><path class="cls-32" d="M70.83,14.91c0,2.44,1.72,3.79,4.41,3.79s4.33-1.12,4.33-3.55-1.18-4.64-3.87-4.64A4.65,4.65,0,0,0,70.83,14.91Z"/><path class="cls-30" d="M75.24,18.7c-2.32,0-3.91-1-4.31-2.83.41.79,1.45,2,4.08,2.22a4,4,0,0,0,4.55-3.4c0,.15,0,.3,0,.46C79.57,17.58,77.93,18.7,75.24,18.7Z"/><path class="cls-1" d="M70.91,14.91a3.66,3.66,0,0,0,.73,2.31,3.73,3.73,0,0,0,2,1.21,5.62,5.62,0,0,0,4.91-.77c1.25-1.1,1.14-3.11.67-4.54a3.8,3.8,0,0,0-1.44-2,3.94,3.94,0,0,0-2.6-.54,4.57,4.57,0,0,0-4.23,4.3.08.08,0,0,1-.16,0,4.48,4.48,0,0,1,2.33-3.8A4.73,4.73,0,0,1,77.74,11a4.6,4.6,0,0,1,1.9,3.77A3.51,3.51,0,0,1,78,18.2a5.34,5.34,0,0,1-2.33.57A6.32,6.32,0,0,1,73,18.4a3.62,3.62,0,0,1-2.27-3.49C70.75,14.81,70.91,14.82,70.91,14.91Z"/><path class="cls-33" d="M72.92,14.37a2.48,2.48,0,1,0,2.47-2.47A2.48,2.48,0,0,0,72.92,14.37Z"/><path class="cls-1" d="M73.64,14.37a1.75,1.75,0,1,0,1.75-1.75A1.75,1.75,0,0,0,73.64,14.37Z"/><path class="cls-6" d="M74,13.53c0,.77.47.31,1.24.31s1.54.46,1.54-.31a1.39,1.39,0,0,0-2.78,0Z"/><path class="cls-6" d="M75,15.65c0,.15.18.27.4.27s.41-.12.41-.27-.18-.27-.41-.27S75,15.5,75,15.65Z"/></svg>