<svg id="Layer_1" data-name="Layer 1" xmlns="http://www.w3.org/2000/svg" xmlns:xlink="http://www.w3.org/1999/xlink" viewBox="0 0 202 134"><defs><style>.cls-1{fill:#1a171b;}.cls-2{fill:url(#linear-gradient);}.cls-3{fill:url(#linear-gradient-2);}.cls-4{fill:url(#linear-gradient-3);}.cls-5{fill:url(#linear-gradient-4);}.cls-6{fill:url(#linear-gradient-5);}.cls-7{fill:url(#linear-gradient-6);}.cls-8{fill:url(#linear-gradient-7);}.cls-9{fill:url(#linear-gradient-8);}.cls-10{fill:url(#linear-gradient-9);}.cls-11{fill:url(#linear-gradient-10);}.cls-12{fill:url(#linear-gradient-11);}.cls-13{fill:url(#linear-gradient-12);}.cls-14{fill:url(#linear-gradient-13);}.cls-15{fill:url(#linear-gradient-14);}.cls-16{fill:url(#linear-gradient-15);}.cls-17{fill:url(#linear-gradient-16);}.cls-18{fill:url(#linear-gradient-17);}.cls-19{fill:url(#linear-gradient-18);}.cls-20{fill:url(#linear-gradient-19);}.cls-21{fill:url(#linear-gradient-20);}.cls-22{fill:#f9bf47;}.cls-23{fill:#fff;}.cls-24{fill:#c5bfbf;}.cls-25{fill:url(#linear-gradient-21);}.cls-26{fill:url(#linear-gradient-22);}.cls-27{fill:url(#linear-gradient-23);}.cls-28{fill:url(#linear-gradient-24);}.cls-29{fill:url(#linear-gradient-25);}.cls-30{fill:url(#linear-gradient-26);}.cls-31{fill:url(#linear-gradient-27);}.cls-32{fill:url(#linear-gradient-28);}.cls-33{fill:url(#linear-gradient-29);}.cls-34{fill:url(#linear-gradient-30);}.cls-35{fill:url(#linear-gradient-31);}.cls-36{fill:url(#linear-gradient-32);}.cls-37{fill:url(#linear-gradient-33);}.cls-38{fill:url(#linear-gradient-34);}.cls-39{fill:url(#linear-gradient-35);}.cls-40{fill:url(#linear-gradient-36);}.cls-41{fill:url(#linear-gradient-37);}.cls-42{fill:#ea7007;}.cls-43{fill:url(#radial-gradient);}.cls-44{fill:url(#radial-gradient-2);}.cls-45{fill:url(#linear-gradient-38);}.cls-46{fill:url(#linear-gradient-39);}.cls-47{fill:#b43918;}.cls-48{fill:url(#linear-gradient-40);}.cls-49{fill:url(#linear-gradient-41);}.cls-50{fill:url(#linear-gradient-42);}.cls-51{fill:url(#linear-gradient-43);}.cls-52{fill:url(#linear-gradient-44);}.cls-53{fill:url(#linear-gradient-45);}.cls-54{fill:url(#radial-gradient-3);}.cls-55{fill:url(#linear-gradient-46);}.cls-56{fill:url(#linear-gradient-47);}.cls-57{fill:url(#linear-gradient-48);}.cls-58{fill:#64b8bb;}.cls-59{fill:url(#linear-gradient-49);}.cls-60{fill:url(#linear-gradient-50);}.cls-61{fill:url(#linear-gradient-51);}.cls-62{fill:#fff5b0;}.cls-63{fill:url(#linear-gradient-52);}.cls-64{fill:url(#linear-gradient-53);}.cls-65{fill:#fff9d1;}</style><linearGradient id="linear-gradient" x1="38.61" y1="69.39" x2="30.64" y2="55.91" gradientUnits="userSpaceOnUse"><stop offset="0" stop-color="#ea7007"/><stop offset="1" stop-color="#ef8e3f"/></linearGradient><linearGradient id="linear-gradient-2" x1="42.1" y1="74.07" x2="30.26" y2="69.78" gradientUnits="userSpaceOnUse"><stop offset="0" stop-color="#d04814"/><stop offset="1" stop-color="#df670e"/></linearGradient><linearGradient id="linear-gradient-3" x1="35.62" y1="62.32" x2="30.72" y2="56.81" gradientUnits="userSpaceOnUse"><stop offset="0" stop-color="#ee861e"/><stop offset="1" stop-color="#f5c175"/></linearGradient><linearGradient id="linear-gradient-4" x1="35.42" y1="62.49" x2="30.52" y2="56.98" gradientUnits="userSpaceOnUse"><stop offset="0" stop-color="#f5ab24"/><stop offset="1" stop-color="#fff5b0"/></linearGradient><linearGradient id="linear-gradient-5" x1="35.22" y1="62.67" x2="30.32" y2="57.16" gradientUnits="userSpaceOnUse"><stop offset="0" stop-color="#fccf50"/><stop offset="1" stop-color="#fff5b0"/></linearGradient><linearGradient id="linear-gradient-6" x1="79.35" y1="98.69" x2="86.69" y2="115.49" gradientUnits="userSpaceOnUse"><stop offset="0" stop-color="#c84516"/><stop offset="1" stop-color="#df670e"/></linearGradient><linearGradient id="linear-gradient-7" x1="79.34" y1="98.66" x2="86.63" y2="115.35" gradientUnits="userSpaceOnUse"><stop offset="0" stop-color="#b82a1b"/><stop offset="1" stop-color="#dd5515"/></linearGradient><linearGradient id="linear-gradient-8" x1="130.17" y1="100.08" x2="137.92" y2="117.84" xlink:href="#linear-gradient-6"/><linearGradient id="linear-gradient-9" x1="130.17" y1="100.08" x2="137.92" y2="117.84" xlink:href="#linear-gradient-7"/><linearGradient id="linear-gradient-10" x1="94" y1="33.51" x2="91.14" y2="16.37" xlink:href="#linear-gradient"/><linearGradient id="linear-gradient-11" x1="99.05" y1="56.82" x2="94.16" y2="110.7" xlink:href="#linear-gradient-2"/><linearGradient id="linear-gradient-12" x1="57.36" y1="95.4" x2="64.1" y2="122.55" xlink:href="#linear-gradient-2"/><linearGradient id="linear-gradient-13" x1="98.84" y1="115.41" x2="111.7" y2="128.48" xlink:href="#linear-gradient-2"/><linearGradient id="linear-gradient-14" x1="126.94" y1="96.62" x2="120.81" y2="106.63" xlink:href="#linear-gradient-2"/><linearGradient id="linear-gradient-15" x1="65.2" y1="108.86" x2="65.41" y2="101.1" xlink:href="#linear-gradient"/><linearGradient id="linear-gradient-16" x1="62.27" y1="42.94" x2="62.48" y2="35.18" gradientTransform="matrix(0.93, -0.38, 0.38, 0.93, 36.52, 100.73)" xlink:href="#linear-gradient"/><linearGradient id="linear-gradient-17" x1="81.65" y1="35.57" x2="78.79" y2="18.42" xlink:href="#linear-gradient-3"/><linearGradient id="linear-gradient-18" x1="81.12" y1="35.41" x2="78.35" y2="18.78" xlink:href="#linear-gradient-4"/><linearGradient id="linear-gradient-19" x1="80.61" y1="35.08" x2="77.94" y2="19.1" xlink:href="#linear-gradient-5"/><linearGradient id="linear-gradient-20" x1="69.2" y1="113" x2="70.83" y2="116.68" gradientUnits="userSpaceOnUse"><stop offset="0" stop-color="#fff5b0"/><stop offset="1" stop-color="#fccf50"/></linearGradient><linearGradient id="linear-gradient-21" x1="86.75" y1="111.37" x2="88.39" y2="115.04" xlink:href="#linear-gradient-20"/><linearGradient id="linear-gradient-22" x1="112.87" y1="119.18" x2="114.66" y2="123.2" xlink:href="#linear-gradient-20"/><linearGradient id="linear-gradient-23" x1="134.72" y1="114.69" x2="136.51" y2="118.71" xlink:href="#linear-gradient-20"/><linearGradient id="linear-gradient-24" x1="110.81" y1="24.07" x2="114.49" y2="25.02" xlink:href="#linear-gradient-20"/><linearGradient id="linear-gradient-25" x1="119.87" y1="30.12" x2="113.77" y2="23.88" xlink:href="#linear-gradient-20"/><linearGradient id="linear-gradient-26" x1="-130.97" y1="-174.08" x2="-127.29" y2="-173.13" gradientTransform="translate(303.26 74.67) rotate(-45.68)" xlink:href="#linear-gradient-20"/><linearGradient id="linear-gradient-27" x1="-121.91" y1="-168.04" x2="-128.01" y2="-174.27" gradientTransform="translate(303.26 74.67) rotate(-45.68)" xlink:href="#linear-gradient-20"/><linearGradient id="linear-gradient-28" x1="-178.94" y1="-330.24" x2="-175.27" y2="-329.29" gradientTransform="matrix(0.2, -0.98, 0.98, 0.2, 445.72, -32.8)" xlink:href="#linear-gradient-20"/><linearGradient id="linear-gradient-29" x1="-169.88" y1="-324.19" x2="-175.99" y2="-330.43" gradientTransform="matrix(0.2, -0.98, 0.98, 0.2, 445.72, -32.8)" xlink:href="#linear-gradient-20"/><linearGradient id="linear-gradient-30" x1="-79.56" y1="-447.91" x2="-76.63" y2="-447.15" gradientTransform="matrix(-0.45, -0.89, 0.89, -0.45, 461.2, -178.27)" xlink:href="#linear-gradient-20"/><linearGradient id="linear-gradient-31" x1="-72.33" y1="-443.08" x2="-77.2" y2="-448.06" gradientTransform="matrix(-0.45, -0.89, 0.89, -0.45, 461.2, -178.27)" xlink:href="#linear-gradient-20"/><linearGradient id="linear-gradient-32" x1="411.33" y1="134.22" x2="414.67" y2="135.09" gradientTransform="matrix(0.86, 0.51, -0.51, 0.86, -146.19, -304.53)" xlink:href="#linear-gradient-20"/><linearGradient id="linear-gradient-33" x1="419.56" y1="139.72" x2="414.02" y2="134.05" gradientTransform="matrix(0.86, 0.51, -0.51, 0.86, -146.19, -304.53)" xlink:href="#linear-gradient-20"/><linearGradient id="linear-gradient-34" x1="746.25" y1="96.7" x2="749.11" y2="97.44" gradientTransform="translate(-73.36 -688.17) rotate(64.65)" xlink:href="#linear-gradient-20"/><linearGradient id="linear-gradient-35" x1="753.31" y1="101.41" x2="748.55" y2="96.55" gradientTransform="translate(-73.36 -688.17) rotate(64.65)" xlink:href="#linear-gradient-20"/><linearGradient id="linear-gradient-36" x1="954.24" y1="-3.58" x2="956.69" y2="-2.94" gradientTransform="translate(115.84 -906.88) rotate(87.11)" xlink:href="#linear-gradient-20"/><linearGradient id="linear-gradient-37" x1="960.28" y1="0.45" x2="956.21" y2="-3.71" gradientTransform="translate(115.84 -906.88) rotate(87.11)" xlink:href="#linear-gradient-20"/><radialGradient id="radial-gradient" cx="-155.05" cy="49.4" r="6.44" gradientTransform="translate(223.96 25.23) scale(0.7)" gradientUnits="userSpaceOnUse"><stop offset="0" stop-color="#e586ae"/><stop offset="1" stop-color="#ea7007"/></radialGradient><radialGradient id="radial-gradient-2" cx="24.24" cy="-14.2" r="4.86" gradientTransform="translate(131.79 74.38) scale(0.92)" xlink:href="#radial-gradient"/><linearGradient id="linear-gradient-38" x1="141.28" y1="48.24" x2="141.28" y2="36.4" gradientTransform="matrix(1.02, 0, 0, 1, -9.9, 2.31)" xlink:href="#linear-gradient"/><linearGradient id="linear-gradient-39" x1="137.13" y1="55.19" x2="136.72" y2="50.08" xlink:href="#linear-gradient-2"/><linearGradient id="linear-gradient-40" x1="137.86" y1="67.17" x2="136.2" y2="46.64" xlink:href="#linear-gradient-2"/><linearGradient id="linear-gradient-41" x1="134.37" y1="97.22" x2="117.22" y2="83.48" xlink:href="#linear-gradient-2"/><linearGradient id="linear-gradient-42" x1="158.16" y1="81.57" x2="174.69" y2="72.59" xlink:href="#linear-gradient"/><linearGradient id="linear-gradient-43" x1="133.16" y1="79.32" x2="145.61" y2="88.5" xlink:href="#linear-gradient-6"/><linearGradient id="linear-gradient-44" x1="123.74" y1="84.16" x2="147.42" y2="84.16" xlink:href="#linear-gradient-2"/><linearGradient id="linear-gradient-45" x1="137.43" y1="60.55" x2="153.56" y2="69.53" xlink:href="#linear-gradient"/><radialGradient id="radial-gradient-3" cx="-114.21" cy="-5.57" r="29.93" gradientTransform="translate(203.43 41.19) scale(0.78)" gradientUnits="userSpaceOnUse"><stop offset="0" stop-color="#c84716"/><stop offset="1" stop-color="#df670e"/></radialGradient><linearGradient id="linear-gradient-46" x1="114.67" y1="29.34" x2="117.12" y2="35.06" gradientUnits="userSpaceOnUse"><stop offset="0" stop-color="#f5b970"/><stop offset="1" stop-color="#ef8e3f"/></linearGradient><linearGradient id="linear-gradient-47" x1="116.31" y1="36.85" x2="120.8" y2="25.82" gradientUnits="userSpaceOnUse"><stop offset="0" stop-color="#f5b970"/><stop offset="1" stop-color="#f9dcb8"/></linearGradient><linearGradient id="linear-gradient-48" x1="142.25" y1="59.51" x2="142.25" y2="58.07" gradientUnits="userSpaceOnUse"><stop offset="0" stop-color="#9dd4dd"/><stop offset="1" stop-color="#fff"/></linearGradient><linearGradient id="linear-gradient-49" x1="141.27" y1="59.13" x2="141.27" y2="58.26" gradientUnits="userSpaceOnUse"><stop offset="0" stop-color="#0080ae"/><stop offset="1" stop-color="#1a171b"/></linearGradient><linearGradient id="linear-gradient-50" x1="133.28" y1="60.68" x2="133.28" y2="58.99" xlink:href="#linear-gradient-48"/><linearGradient id="linear-gradient-51" x1="133.03" y1="59.67" x2="133.03" y2="58.65" xlink:href="#linear-gradient-49"/><linearGradient id="linear-gradient-52" x1="161.12" y1="60.53" x2="169.08" y2="61.45" xlink:href="#linear-gradient-20"/><linearGradient id="linear-gradient-53" x1="170.56" y1="68.25" x2="164.3" y2="61.86" xlink:href="#linear-gradient-20"/></defs><path class="cls-1" d="M153.81,56.38a49.07,49.07,0,0,0-3.75-13.73c-5.21-12-10.92-20.32-18-26a36.15,36.15,0,0,0-13.84-7,45.09,45.09,0,0,0-8.83-1.15c-1.3-.07-2.64-.1-4-.1-2,0-4.07.08-6.1.23-13.93,1-27,5.85-36.94,13.54A51,51,0,0,0,47,42,62.55,62.55,0,0,0,29.14,58.55a59.43,59.43,0,0,0-9.8,19.25,16.81,16.81,0,0,0-.8,6.37,4.24,4.24,0,0,0,1.07,2.37A4.1,4.1,0,0,0,22.84,88a6.58,6.58,0,0,0,.87-.06,19.85,19.85,0,0,0,4.23-1.27c.46-.18.93-.36,1.39-.52a27.85,27.85,0,0,1,7.75-1.77q.45,0,.9,0a17.29,17.29,0,0,1,9.41,2.93c.69,2.54,1.47,5,2.33,7.3C53.21,104,58,111.1,64.08,115.79c.51.39,1,.78,1.61,1.17h0a2.78,2.78,0,0,0,1.37.77l.14,0a7.38,7.38,0,0,0,2.57.56H70a.57.57,0,0,0,.18,0,.74.74,0,0,0,.25-.05,5.48,5.48,0,0,0,3.68-1.91,3.24,3.24,0,0,0,.64-2.61,3.82,3.82,0,0,0-.47-1.24c-.29-1.4-.56-2.94-.83-4.7-.34-2.15-.68-4.59-.83-7.1a44.64,44.64,0,0,0,5.85,9.73,25.71,25.71,0,0,0,4.76,4.8l0,0a2.71,2.71,0,0,0,1.37.78l.15.05a7.56,7.56,0,0,0,2.57.56h.19a.47.47,0,0,0,.17,0,.69.69,0,0,0,.25,0,5.54,5.54,0,0,0,3.68-1.91,3.25,3.25,0,0,0,.64-2.61,4,4,0,0,0-2.69-3h0a21.55,21.55,0,0,1-.65-2.87c-.1-.58-.18-1.19-.25-1.8,1.09.26,2.19.49,3.27.71.8.16,1.64.31,2.57.46l.13,0c.38.06.38.06.46.23.18.4.36.79.55,1.18.66,1.37,1.39,2.75,2.18,4.1a44.38,44.38,0,0,0,5.34,7.3,34.37,34.37,0,0,0,5.2,4.67l.2.17a2.06,2.06,0,0,0,.88.52,4.78,4.78,0,0,0,1.11.49l.16.06a8.27,8.27,0,0,0,2.8.61h.21l.18,0a.86.86,0,0,0,.27,0,6,6,0,0,0,4-2.07,3.54,3.54,0,0,0,.69-2.82,4.33,4.33,0,0,0-1.48-2.49,87.47,87.47,0,0,1-1.25-9.17c0-.63-.1-1.3-.13-2,0-.31,0-.63,0-1,0-.08,0-.17,0-.26s0-.07,0-.11c1.26-.28,2.57-.62,3.9-1,2.1,6.59,5.86,11.81,10.62,14.72.22.14.41.25.6.35a3.72,3.72,0,0,0,1.32.66l.16.05a8.09,8.09,0,0,0,2.8.62h.21l.18,0a.76.76,0,0,0,.27-.05,6,6,0,0,0,4-2.07,3.5,3.5,0,0,0,.69-2.82,4.29,4.29,0,0,0-2.28-3c-1.33-3.3-1.84-7.33-1.56-12.32a49.79,49.79,0,0,1,.55-5.17,46.09,46.09,0,0,0,6.32-6.17,41.41,41.41,0,0,0,5.75-8.69,49.44,49.44,0,0,0,3.36-9.59A41.39,41.39,0,0,0,153.81,56.38Z"/><path class="cls-2" d="M49.85,88.3a17.87,17.87,0,0,0-14.29-4.49C27,85,22.49,89.93,19.63,85.44s7.15-32.25,30.62-44.5Z"/><path class="cls-3" d="M35.56,83.81A17.87,17.87,0,0,1,49.85,88.3l.26-30.16L45,54.61s-9.39,7.56-14.9,18.17c-3.33,6.41-5.92,14.29-10.42,12.66C22.49,89.93,27,85,35.56,83.81Z"/><path class="cls-4" d="M40.72,47.27a61.72,61.72,0,0,0-6.93,6.65,28.34,28.34,0,0,0,3.58,10c3.1,4.71,3.24-4.36,3.14-6.71s0-4.9.07-7.34C40.62,49,40.67,48.13,40.72,47.27Zm-8.79,8.82a68,68,0,0,0-4.52,6.15,25.62,25.62,0,0,0,5.7,7.18c4.12,3.29,1.62-4.82.85-6.88S32.52,58.26,31.93,56.09ZM26,64.45c-1,1.66-1.88,3.29-2.66,4.88a20.33,20.33,0,0,0,5.95,4.54c3.74,1.67.27-3.94-.71-5.34S26.84,65.84,26,64.45Z"/><path class="cls-5" d="M30.42,73.77h0a2.59,2.59,0,0,1-.94-.27,19.34,19.34,0,0,1-5.62-4.25c.66-1.34,1.39-2.68,2.17-4,.82,1.4,1.53,2.5,2.25,3.52,1.29,1.85,2.58,4.42,2.3,5,0,0,0,0-.16,0Zm4.23-4c-.16,0-.54-.09-1.29-.69a24.62,24.62,0,0,1-5.48-6.84c1.21-1.83,2.5-3.61,3.87-5.31.64,2.29,1.21,4.08,1.83,5.73.9,2.41,1.84,6.18,1.26,7a.21.21,0,0,1-.19.1Zm4.26-5c-.11,0-.49-.08-1.2-1.15A27.36,27.36,0,0,1,34.22,54a62.87,62.87,0,0,1,6-5.86c0,.59-.06,1.14-.09,1.66-.09,2-.18,4.67-.07,7.38.11,2.5-.12,6.61-1,7.5-.12.12-.2.12-.22.12Z"/><path class="cls-6" d="M30.2,73.33a3,3,0,0,1-.55-.2,18.48,18.48,0,0,1-5.3-3.95c.53-1.05,1.09-2.1,1.68-3.14.68,1.13,1.3,2.08,1.91,3a15.55,15.55,0,0,1,2.26,4.33Zm4.35-4a3.71,3.71,0,0,1-.94-.59,23.84,23.84,0,0,1-5.25-6.51c1-1.52,2.09-3,3.21-4.45.56,1.93,1.08,3.53,1.63,5,1,2.66,1.63,5.77,1.35,6.54Zm4.32-5a2.89,2.89,0,0,1-.82-.94,26.51,26.51,0,0,1-3.39-9.3,62.71,62.71,0,0,1,5.14-5l0,.71c-.1,2-.19,4.7-.07,7.42s-.19,6.39-.83,7.16Z"/><path class="cls-1" d="M49.92,88.22A17.92,17.92,0,0,0,36.39,83.6a31,31,0,0,0-7.57,1.86,25.86,25.86,0,0,1-5.49,1.7,3.55,3.55,0,0,1-3.65-1.85,4.11,4.11,0,0,1-.42-2,15,15,0,0,1,.29-3,38.93,38.93,0,0,1,2.67-8.29,64.82,64.82,0,0,1,5.4-10A63,63,0,0,1,47,42.92c1.08-.67,2.19-1.3,3.32-1.89.12-.06,0-.24-.1-.18a61.22,61.22,0,0,0-20.59,18A59.34,59.34,0,0,0,19.9,78a16.22,16.22,0,0,0-.79,6.14,3.72,3.72,0,0,0,.94,2.07,3.76,3.76,0,0,0,3.58,1.16,31,31,0,0,0,5.51-1.77,29.12,29.12,0,0,1,7.91-1.8A17.8,17.8,0,0,1,48.6,87.38a11.12,11.12,0,0,1,1.17,1,.11.11,0,0,0,.15-.15Z"/><path class="cls-7" d="M83.73,114.83s-7.14-4.9-11.84-17.55L76,94.42l11.84,7.76s.21,6.94,2.45,10Z"/><path class="cls-8" d="M76,94.42l-4.08,2.86c4.7,12.65,11.84,17.55,11.84,17.55l1.66-.67-.23-.14c-5.72-3.47-4.9-10.62-1.84-10.41,2.55.17,4.53,2.87,5.12,3.78a34.77,34.77,0,0,1-.63-5.21Z"/><path class="cls-1" d="M83.78,114.74A21,21,0,0,1,80,111.19a43.57,43.57,0,0,1-7.31-12l-.41-1c0-.08-.28-.82-.37-.76l.43-.3,1.85-1.3,1.63-1.14.15-.1s-.13,0-.08,0l.21.13,6.76,4.43,3.62,2.37,1,.67.2.13s0-.12,0,.07a33,33,0,0,0,.46,4.21,13.9,13.9,0,0,0,1.93,5.61l.06.09c.08.11.26,0,.18-.1a13.86,13.86,0,0,1-2-5.77,31.62,31.62,0,0,1-.43-4.12c0-.15-.11-.19-.23-.27l-1-.63L83.17,99,76,94.33a.11.11,0,0,0-.11,0l-4.08,2.86a.1.1,0,0,0,0,.11,46.56,46.56,0,0,0,7.1,12.83,25.6,25.6,0,0,0,4.66,4.7l.13.09c.11.08.21-.1.1-.18Z"/><path class="cls-9" d="M131.7,118.71s-9-4.08-12-18l18-10s-3.88,14.28.82,23.47Z"/><path class="cls-10" d="M137.62,90.75l-18,10c3.06,13.88,12,18,12,18l1.26-.84-.65-1.2c-4.06-2.33-9.1-8.78-4.69-13.06,2.08-2,6.26-1.39,8.53.65A50.23,50.23,0,0,1,137.62,90.75Z"/><path class="cls-1" d="M131.75,118.62a14.79,14.79,0,0,1-3.56-2.51,26.17,26.17,0,0,1-6.46-9.2,30.68,30.68,0,0,1-1.34-3.73c-.2-.64-.36-1.3-.52-2,0,0-.07-.44-.15-.4l.06,0,1.82-1,7.93-4.41,8.14-4.54-.15-.11a45.23,45.23,0,0,0-1.21,6.83,34.8,34.8,0,0,0,.79,13.56,18.72,18.72,0,0,0,1.25,3.16c.06.12.23,0,.17-.1-2.15-4.27-2.49-9.26-2.23-14a49.54,49.54,0,0,1,1.35-9.14c0-.1.05-.2.08-.3a.1.1,0,0,0-.15-.11L124.42,98l-4.81,2.68a.09.09,0,0,0,0,.11c1.52,6.82,5.1,13.8,11.22,17.55a9.17,9.17,0,0,0,.87.48c.12,0,.22-.12.1-.18Z"/><path class="cls-11" d="M149.44,42.93c-7-16.21-17.74-31.79-36.65-33.52C98,8.06,82.9,10.72,69.94,18A54.21,54.21,0,0,0,59.6,25.44C50,34.3,43.28,47.55,44.35,60.74h0s0,41,21.85,55.73l7.55-3.07s-2-9.4-1.91-15.78a59.74,59.74,0,0,0,5.79,2.61,83,83,0,0,0,17.87,4.86c3.21,7.17,7.74,13.78,14.17,18.11l7.56-3.06s-2-9.22-1.91-15.6c10-2.1,19.61-7,26.3-14.23a44.49,44.49,0,0,0,7-9.87,49.31,49.31,0,0,0,4.35-14C154.19,58.46,152.63,50.34,149.44,42.93Z"/><path class="cls-12" d="M44.35,60.74h0s0,41,21.85,55.73l7.55-3.07s-2-9.4-1.91-15.78a59.74,59.74,0,0,0,5.79,2.61,83,83,0,0,0,17.87,4.86c3.21,7.17,7.74,13.78,14.17,18.11l7.56-3.06s-2-9.22-1.91-15.6c10-2.1,19.61-7,26.3-14.23a44.49,44.49,0,0,0,7-9.87,49.31,49.31,0,0,0,4.35-14c1.22-8-.34-16.15-3.53-23.56-3.35-7.76-7.56-15.37-13.11-21.39a11.29,11.29,0,0,0-3.09,3.68c-.23.38-.45.79-.66,1.21-1.12-.1-2.27-.16-3.44-.16a49,49,0,0,0-10.29,1.18c-.52-.66-1.08-1.3-1.65-1.91-1.63-1.75-4.14-3.83-6.79-3.83a4.8,4.8,0,0,0-2.36.61c-2.91,1.61-2.87,6-2.86,7.44a27.43,27.43,0,0,0,.18,2.85A44,44,0,0,0,94,42.49a30,30,0,0,0-5.5-.63h-.43c-4.56,0-7.5,1.53-8.26,4.3-.89,3.21,2.28,6.25,3.32,7.25a26.74,26.74,0,0,0,3.33,2.7c-.25.77-.48,1.54-.68,2.31a44.23,44.23,0,0,0-1.29,12.3c-.73.37-1.46.78-2.15,1.21-2.37,1.47-6.16,4.51-4.94,8.34,1,3.18,5.31,4,6.73,4.27a27.52,27.52,0,0,0,3,.39,33.32,33.32,0,0,0,3.29,6.37,24.27,24.27,0,0,0-1.41,3.17,12.18,12.18,0,0,0-.77,3.92,36,36,0,0,1-5.46-.68C59,92.81,44.56,54.54,44.56,54.54l-.17.1A35.49,35.49,0,0,0,44.35,60.74Z"/><path class="cls-13" d="M44.4,60.94l-.06,0c0,3.34,1,41.45,21.84,55.5l3.34-1.36c-.59-.23-1.2-.46-1.85-.69C51.75,108.71,44.4,60.94,44.4,60.94Z"/><path class="cls-14" d="M96.52,103.4c-6,.82-24.76-5.85-24.76-5.85l.08.07a57.1,57.1,0,0,0,5.77,2.61,83,83,0,0,0,17.87,4.86c3.21,7.17,7.74,13.78,14.17,18.11l2.7-1.09a5.79,5.79,0,0,0-.59-.2C104.82,119.87,96.52,103.4,96.52,103.4Z"/><path class="cls-15" d="M121.49,86.05l-4.28,7.55s11.84,0,11.84,2.45c0,2-9.62,6.77-12.85,8.3,9.64-2.21,18.91-7,25.4-14a48,48,0,0,0,6.1-8.15c-2.68-1.06-6.27-1.39-9.67-1.82C131.7,79.52,121.49,86.05,121.49,86.05Z"/><path class="cls-16" d="M63.12,99.25c2.08-2.49,5.11,1.12,4.47,3.47-.41,1.52-2.7,1.83-3.72.77S63.13,100,65,100.22c.46.06,1.08.21,1.28.68a1,1,0,0,1-.21.93,1.39,1.39,0,0,1-.75.56c-.44.12-.41-.46-.37-.73s-.17-.18-.19-.06c-.06.36-.09.94.39,1a1.32,1.32,0,0,0,1-.6,1.19,1.19,0,0,0,.26-1.24,2,2,0,0,0-1.69-.78c-1.38-.07-1.82,1.49-1.56,2.58a2.4,2.4,0,0,0,3.24,1.59c3.79-1.17-.5-8.55-3.43-5-.08.1.06.25.15.14Z"/><path class="cls-17" d="M104.83,108.86c1-3.1,5.16-.89,5.46,1.52.19,1.57-1.82,2.72-3.15,2.12s-2-3-.23-3.44a1.5,1.5,0,0,1,1.44.15,1,1,0,0,1,.16.94,1.4,1.4,0,0,1-.49.8c-.36.28-.55-.28-.61-.54s-.24-.1-.21,0c.09.34.28.89.74.77s.64-.59.75-.95a1.2,1.2,0,0,0-.24-1.24,2,2,0,0,0-1.86-.08c-1.29.46-1.11,2.06-.46,3a2.4,2.4,0,0,0,3.6.24c3.06-2.51-3.69-7.73-5.08-3.38,0,.13.14.21.18.08Z"/><path class="cls-18" d="M55.36,29.87c-.55,5.35-1,12.75.39,15.45,1.84,3.57,3-13.14,9.42-24.34a52.82,52.82,0,0,0-5.57,4.46A50.8,50.8,0,0,0,55.36,29.87ZM69.94,18l-.22.13c-1.85,7.31-4.94,20.91-3.4,24.65,1.94,4.73,6.82-16.16,15.56-30A66.64,66.64,0,0,0,69.94,18ZM87.5,11.16c-3.35,9.25-9.55,27.29-8.56,31.3C80.41,48.36,91.27,19.12,105,9.07A77,77,0,0,0,87.5,11.16Z"/><path class="cls-19" d="M56.26,45.28a1.3,1.3,0,0,1-.1-.18c-1-2-1.15-7.32-.36-15a49,49,0,0,1,4.12-4.28,50.2,50.2,0,0,1,3.89-3.24c-2.85,5.67-4.57,12.38-5.75,17-.63,2.45-1.34,5.2-1.8,5.78ZM67,43a.94.94,0,0,1-.25-.4c-1.07-2.6.16-11.41,3.38-24.17l0,0a67.77,67.77,0,0,1,10.65-4.78c-3.87,6.44-7,14.25-9.32,20-1.1,2.75-2,5.12-2.86,6.81C67.55,42.73,67.09,43,67,43Zm12.58-.21a1,1,0,0,1-.18-.43c-.69-2.78,2.39-14,8.46-30.8a76.42,76.42,0,0,1,15.79-2C96.34,15.47,90.05,26.23,85.4,34.2c-1.48,2.54-2.77,4.73-3.81,6.29-1.41,2.1-1.91,2.28-2,2.29Z"/><path class="cls-20" d="M56.28,44.14c-.68-2.33-.7-7.28,0-13.89a51.81,51.81,0,0,1,4-4.13c.74-.68,1.51-1.35,2.32-2a96,96,0,0,0-4.94,15.26c-.41,1.59-.93,3.6-1.33,4.76Zm10.83-1.9c-.9-2.69.37-11.42,3.41-23.51a65.76,65.76,0,0,1,9.24-4.25,153.68,153.68,0,0,0-8.7,19c-1.09,2.73-2,5.09-2.85,6.78a12.8,12.8,0,0,1-1.1,2Zm12.69-.19c-.47-3,2.64-14.13,8.4-30.1a75,75,0,0,1,14.13-1.89C95.4,16.16,89.42,26.39,85,34c-1.48,2.54-2.76,4.73-3.79,6.27a12.84,12.84,0,0,1-1.41,1.82Z"/><path class="cls-1" d="M149.52,42.88c-4.14-9.6-9.55-19.14-17.79-25.82a35.29,35.29,0,0,0-13.62-6.86,44.88,44.88,0,0,0-8.71-1.13,79.46,79.46,0,0,0-10,.13c-13.07,1-26.21,5.32-36.62,13.41C53.18,30.08,46,41.26,44.42,53.43c-.15,1.21-.24,2.43-.27,3.64a22.93,22.93,0,0,0,.16,3.57.11.11,0,0,0-.08.1A92.19,92.19,0,0,0,45,71.5a99.31,99.31,0,0,0,5.27,22.84c3,8,7.38,15.71,14.18,21,.51.4,1,.78,1.58,1.15.18.13.25.06.44,0l2.48-1,4.82-2a.1.1,0,0,0,.07-.12c-.39-1.8-.7-3.61-1-5.43a61.78,61.78,0,0,1-.91-10.33l-.16.08a76.62,76.62,0,0,0,20.29,6.9c.84.17,1.69.32,2.54.46.52.08.79.08,1,.58l.55,1.17c.66,1.38,1.39,2.73,2.16,4a43.27,43.27,0,0,0,5.27,7.21,34.33,34.33,0,0,0,5.11,4.6c.35.25.72.73,1.15.56l1.25-.51,6.12-2.48a.11.11,0,0,0,.08-.13,90.12,90.12,0,0,1-1.75-11.66c0-.67-.09-1.33-.12-2,0-.32,0-.65,0-1s-.15-.82.28-.92c1.54-.33,3-.73,4.55-1.19a54.77,54.77,0,0,0,8.57-3.44A45.7,45.7,0,0,0,143.3,88.52,40.34,40.34,0,0,0,149,80a48.94,48.94,0,0,0,3.33-9.48,40.65,40.65,0,0,0,.94-14,47.81,47.81,0,0,0-3.71-13.57c-.05-.12-.22,0-.17.1a44.81,44.81,0,0,1,3.83,20.79A45.24,45.24,0,0,1,151.09,74a40.33,40.33,0,0,1-4.3,9.45,45.09,45.09,0,0,1-13.86,13.91,53.82,53.82,0,0,1-17.47,7l-.19,0a.1.1,0,0,0-.07.09,73.43,73.43,0,0,0,1.69,14.54c.07.36.14.72.22,1.09,0-.11.14-.16,0-.1l-.19.08-.77.31-4.84,2-1.56.64c-.25.1-.58-.32-.79-.46-.68-.49-1.33-1-2-1.54a37.23,37.23,0,0,1-6.19-6.78,50.38,50.38,0,0,1-4.61-7.91c-.16-.33-.31-.66-.47-1s-.09-.36-.42-.41c-.93-.14-1.85-.3-2.77-.47q-2.64-.51-5.25-1.2a75.93,75.93,0,0,1-15.4-5.76.11.11,0,0,0-.16.09,72.23,72.23,0,0,0,1.66,14.57c.08.41.16.82.25,1.23,0-.11.13-.14-.11,0l-.7.28-4.81,2-1.68.68c-.23.1-.19,0-.42-.13-.49-.34-1-.69-1.43-1a34.4,34.4,0,0,1-4.64-4.39,47.06,47.06,0,0,1-7.06-10.94,86,86,0,0,1-7-23.81,109,109,0,0,1-1.37-14.65v-.43c0-.21,0-.07-.06-.06s.07,0,.07-.09C43.47,48.21,49.34,36,58,27.16c9.42-9.59,22.57-15.08,35.7-17.11a76,76,0,0,1,20-.45,34.37,34.37,0,0,1,15.1,5.53C137.67,21,143.61,30.52,148,40c.45,1,.89,2,1.32,2.94C149.4,43.11,149.58,43,149.52,42.88Z"/><path class="cls-21" d="M73.83,113.2A3.2,3.2,0,0,0,70,111.46c-2.75.82-3.77,4.9-3.77,4.9-.11.44,2.43,1.19,2.75,1.24a5.4,5.4,0,0,0,1.21.05l0,0v0a4.9,4.9,0,0,0,1.52-.31C73.37,116.71,74.64,115,73.83,113.2Z"/><path class="cls-22" d="M68.93,117.6a5.4,5.4,0,0,0,1.21.05l0,0v0a4.9,4.9,0,0,0,1.52-.31A3.22,3.22,0,0,0,74,113.66a3.42,3.42,0,0,1-2.1,2.53,7.82,7.82,0,0,1-5.69.28C66.47,116.91,68.64,117.55,68.93,117.6Z"/><path class="cls-1" d="M74.15,113.9a3.43,3.43,0,0,0-2.3-2.58c-1.87-.59-3.59.77-4.55,2.24a9.2,9.2,0,0,0-1.22,2.78h0c0,.48,1,.76,1.35.88a6.92,6.92,0,0,0,2.38.53h.28a.1.1,0,0,0,.15,0C72.2,117.6,74.56,116.15,74.15,113.9Zm-1-1.45a3,3,0,0,1,.72,1.36,2.62,2.62,0,0,1-.81,2.47,5.19,5.19,0,0,0-2.68-4.79A2.93,2.93,0,0,1,73.2,112.45Zm-4.76,4.92c-.4-.12-.79-.25-1.17-.4-.17-.07-1-.34-1-.6a9,9,0,0,1,1.38-3,4.18,4.18,0,0,1,2.4,4.18A5.46,5.46,0,0,1,68.44,117.37Zm1.83.19a4.35,4.35,0,0,0-2.49-4.33L68,113a4.18,4.18,0,0,1,2.13-1.4,5,5,0,0,1,2.79,4.8.1.1,0,0,0,0,.08,4.11,4.11,0,0,1-.92.64A4.48,4.48,0,0,1,70.27,117.56Z"/><path class="cls-23" d="M68,114.3c.11.21.4.14.82-.06a5,5,0,0,0-.76-.6A.88.88,0,0,0,68,114.3Zm2.65-2.44a3.39,3.39,0,0,0-1.29.38,3,3,0,0,0-1.22,1.21,5.08,5.08,0,0,1,.87.69l1-.56a17.61,17.61,0,0,0,1.59-.89A4.63,4.63,0,0,0,70.68,111.86Zm1.28.32c-.1-.19-.46-.32-.93-.33a4.81,4.81,0,0,1,.78.71C72,112.42,72,112.3,72,112.18Z"/><path class="cls-24" d="M71,111.85h-.35a4.63,4.63,0,0,1,1,.83l.15-.13A4.81,4.81,0,0,0,71,111.85Zm-2.94,1.79a5,5,0,0,1,.76.6l.19-.1a5.08,5.08,0,0,0-.87-.69C68.14,113.52,68.11,113.58,68.09,113.64Z"/><path class="cls-25" d="M91.39,111.57a3.21,3.21,0,0,0-3.88-1.74c-2.76.82-3.78,4.9-3.78,4.9-.11.43,2.43,1.19,2.75,1.23a6.1,6.1,0,0,0,1.21.06l0,0v0a5.21,5.21,0,0,0,1.53-.31C90.93,115.07,92.19,113.4,91.39,111.57Z"/><path class="cls-22" d="M86.48,116a6.1,6.1,0,0,0,1.21.06l0,0v0a5.21,5.21,0,0,0,1.53-.31A3.24,3.24,0,0,0,91.55,112a3.46,3.46,0,0,1-2.1,2.53,7.87,7.87,0,0,1-5.69.28C84,115.28,86.19,115.92,86.48,116Z"/><path class="cls-1" d="M91.7,112.27a3.38,3.38,0,0,0-2.3-2.58c-1.87-.59-3.59.77-4.55,2.24a9.79,9.79,0,0,0-1.22,2.77v0h0c0,.47,1,.76,1.34.88a7,7,0,0,0,2.38.52,2.62,2.62,0,0,0,.28,0,.11.11,0,0,0,.15,0C89.76,116,92.12,114.52,91.7,112.27Zm-.94-1.46a3.13,3.13,0,0,1,.72,1.37,2.62,2.62,0,0,1-.81,2.47A5.23,5.23,0,0,0,88,109.86,2.94,2.94,0,0,1,90.76,110.81ZM86,115.73c-.39-.11-.78-.25-1.17-.39-.16-.07-1-.34-1-.6a9.2,9.2,0,0,1,1.38-3,4.18,4.18,0,0,1,2.41,4.18A5.53,5.53,0,0,1,86,115.73Zm1.83.2a4.38,4.38,0,0,0-2.48-4.34l.2-.26a4.2,4.2,0,0,1,2.13-1.4,5,5,0,0,1,2.8,4.8.08.08,0,0,0,0,.08,4.75,4.75,0,0,1-.92.64A4.66,4.66,0,0,1,87.82,115.93Z"/><path class="cls-23" d="M85.59,112.67c.11.2.39.14.81-.06a4.57,4.57,0,0,0-.76-.6A.83.83,0,0,0,85.59,112.67Zm2.64-2.44a3.27,3.27,0,0,0-1.29.38,3,3,0,0,0-1.21,1.21,4.91,4.91,0,0,1,.86.69c.3-.15.65-.35,1-.56.62-.34,1.22-.63,1.58-.89A4.15,4.15,0,0,0,88.23,110.23Zm1.29.31a1.17,1.17,0,0,0-.94-.32,4.49,4.49,0,0,1,.79.71C89.52,110.79,89.58,110.66,89.52,110.54Z"/><path class="cls-24" d="M88.58,110.22a2.08,2.08,0,0,0-.35,0,4.15,4.15,0,0,1,1,.83l.16-.13A4.49,4.49,0,0,0,88.58,110.22ZM85.64,112a4.57,4.57,0,0,1,.76.6l.19-.1a4.91,4.91,0,0,0-.86-.69A1.63,1.63,0,0,0,85.64,112Z"/><path class="cls-26" d="M118,119.39a3.51,3.51,0,0,0-4.25-1.9c-3,.9-4.14,5.37-4.14,5.37-.12.48,2.67,1.3,3,1.35a6.46,6.46,0,0,0,1.32.07l0,0a.09.09,0,0,0,0,0,5.89,5.89,0,0,0,1.67-.33C117.45,123.24,118.84,121.4,118,119.39Z"/><path class="cls-22" d="M112.58,124.21a6.46,6.46,0,0,0,1.32.07l0,0a.09.09,0,0,0,0,0,5.89,5.89,0,0,0,1.67-.33,3.56,3.56,0,0,0,2.53-4,3.78,3.78,0,0,1-2.3,2.77,8.61,8.61,0,0,1-6.24.31C109.88,123.46,112.26,124.17,112.58,124.21Z"/><path class="cls-1" d="M118.3,120.17a3.72,3.72,0,0,0-2.52-2.84c-2-.64-3.94.85-5,2.46a10.33,10.33,0,0,0-1.34,3v0h0c0,.52,1.13.83,1.47,1a7.61,7.61,0,0,0,2.61.58h.31a.11.11,0,0,0,.16,0C116.17,124.21,118.75,122.63,118.3,120.17Zm-1-1.6a3.33,3.33,0,0,1,.78,1.5,2.84,2.84,0,0,1-.89,2.7,5.71,5.71,0,0,0-2.93-5.25A3.22,3.22,0,0,1,117.27,118.57ZM112,124c-.43-.13-.86-.27-1.28-.44-.18-.07-1.09-.36-1.08-.65a9.83,9.83,0,0,1,1.51-3.27,4.59,4.59,0,0,1,2.63,4.58A5.88,5.88,0,0,1,112,124Zm2,.21a4.77,4.77,0,0,0-2.72-4.75l.23-.28a4.55,4.55,0,0,1,2.33-1.54,5.46,5.46,0,0,1,3.06,5.26.11.11,0,0,0,0,.09,4.93,4.93,0,0,1-1,.7A5.13,5.13,0,0,1,114,124.17Z"/><path class="cls-23" d="M111.6,120.6c.12.23.43.15.89-.07a5.29,5.29,0,0,0-.83-.65A.9.9,0,0,0,111.6,120.6Zm2.89-2.67a3.57,3.57,0,0,0-1.41.41,3.32,3.32,0,0,0-1.33,1.33,5.56,5.56,0,0,1,1,.76l1.13-.62a19.36,19.36,0,0,0,1.74-1A4.54,4.54,0,0,0,114.49,117.93Zm1.41.34c-.11-.2-.5-.34-1-.35a4.93,4.93,0,0,1,.86.78C115.9,118.54,116,118.4,115.9,118.27Z"/><path class="cls-24" d="M114.88,117.92a2.6,2.6,0,0,0-.39,0,4.54,4.54,0,0,1,1.08.91l.17-.14A4.93,4.93,0,0,0,114.88,117.92Zm-3.22,2a5.29,5.29,0,0,1,.83.65l.21-.1a5.56,5.56,0,0,0-1-.76A1.89,1.89,0,0,0,111.66,119.88Z"/><path class="cls-27" d="M139.79,114.9a3.51,3.51,0,0,0-4.25-1.9c-3,.9-4.14,5.37-4.14,5.37-.11.47,2.67,1.3,3,1.35a5.82,5.82,0,0,0,1.32.06l0,0v0a5.89,5.89,0,0,0,1.67-.33C139.29,118.75,140.68,116.91,139.79,114.9Z"/><path class="cls-22" d="M134.42,119.72a5.82,5.82,0,0,0,1.32.06l0,0v0a5.89,5.89,0,0,0,1.67-.33c1.69-.64,3-2.23,2.53-4a3.76,3.76,0,0,1-2.3,2.77,8.61,8.61,0,0,1-6.24.31C131.72,119,134.1,119.67,134.42,119.72Z"/><path class="cls-1" d="M140.14,115.68a3.72,3.72,0,0,0-2.52-2.84c-2.05-.64-3.94.85-5,2.46a10.31,10.31,0,0,0-1.33,3s0,0,0,0h0c0,.52,1.13.83,1.47,1a7.61,7.61,0,0,0,2.61.58h.31a.12.12,0,0,0,.17,0C138,119.72,140.59,118.14,140.14,115.68Zm-1-1.6a3.33,3.33,0,0,1,.78,1.5,2.87,2.87,0,0,1-.88,2.7,5.72,5.72,0,0,0-2.94-5.25A3.22,3.22,0,0,1,139.11,114.08Zm-5.22,5.39c-.44-.13-.87-.27-1.29-.44-.18-.07-1.09-.36-1.08-.65a9.83,9.83,0,0,1,1.51-3.27,4.58,4.58,0,0,1,2.63,4.58A5.81,5.81,0,0,1,133.89,119.47Zm2,.21a4.79,4.79,0,0,0-2.73-4.75c.08-.09.15-.19.23-.29a4.68,4.68,0,0,1,2.33-1.54,5.49,5.49,0,0,1,3.07,5.27.1.1,0,0,0,0,.09,5.36,5.36,0,0,1-1,.7A5.13,5.13,0,0,1,135.89,119.68Z"/><path class="cls-23" d="M133.44,116.11c.12.23.43.15.89-.07a4.87,4.87,0,0,0-.83-.65A.94.94,0,0,0,133.44,116.11Zm2.9-2.67a3.57,3.57,0,0,0-1.42.41,3.32,3.32,0,0,0-1.33,1.33,5.11,5.11,0,0,1,.95.76l1.13-.62a19.36,19.36,0,0,0,1.74-1A4.49,4.49,0,0,0,136.34,113.44Zm1.4.34c-.1-.2-.5-.34-1-.36a5,5,0,0,1,.86.79C137.75,114.05,137.82,113.91,137.74,113.78Z"/><path class="cls-24" d="M136.72,113.42a2.48,2.48,0,0,0-.38,0,4.49,4.49,0,0,1,1.07.91l.17-.14A5,5,0,0,0,136.72,113.42Zm-3.22,2a4.87,4.87,0,0,1,.83.65l.21-.1a5.11,5.11,0,0,0-.95-.76A1.89,1.89,0,0,0,133.5,115.39Z"/><path class="cls-1" d="M183.06,74.59a20.4,20.4,0,0,0-4.49-12,.3.3,0,0,0,0-.08,29.76,29.76,0,0,0-4.07-5.74,19.22,19.22,0,0,0-4.67-4l.15-.15c2.28-2.36,2.94-4.63,1.85-6.39-.73-1.18-2.14-1.76-4.31-1.76l-.88,0h0a27.74,27.74,0,0,0-3.09-7.65c-.14-.22-.28-.45-.44-.69a25.91,25.91,0,0,0,1.11-2.39c.81-2,1.78-5.77-.83-7.64a3.77,3.77,0,0,0-2.27-.69,9.79,9.79,0,0,0-4,1.14,22.33,22.33,0,0,0-2.23,1.26,23.93,23.93,0,0,0-3.23-1.81c-.92-.44-1.91-.84-2.94-1.22-.09-.56-.19-1.11-.31-1.63-.54-2.49-2-6.68-5.7-6.79h-.12c-3,0-4.95,3.39-5.6,4.51-.22.38-.45.79-.66,1.22C135.14,22,134,22,132.81,22a49,49,0,0,0-10.29,1.17c-.52-.66-1.07-1.3-1.64-1.91-1.64-1.75-4.14-3.83-6.8-3.83a4.84,4.84,0,0,0-2.35.61c-2.92,1.61-2.88,6-2.86,7.44a24.92,24.92,0,0,0,.18,2.85A44.21,44.21,0,0,0,97.71,38.2a30.89,30.89,0,0,0-5.5-.62h-.43c-4.56,0-7.5,1.53-8.26,4.31-.88,3.2,2.28,6.24,3.32,7.24a26.74,26.74,0,0,0,3.33,2.7c-.25.77-.48,1.55-.68,2.32a44.13,44.13,0,0,0-1.28,12.29c-.74.38-1.46.78-2.16,1.21-2.37,1.47-6.16,4.51-4.94,8.35,1,3.17,5.32,4,6.73,4.26a25.18,25.18,0,0,0,3,.39A32.76,32.76,0,0,0,94.15,87a23.55,23.55,0,0,0-1.41,3.17C92,92.3,91.09,96.13,93.81,98A3.84,3.84,0,0,0,96,98.6a9.63,9.63,0,0,0,4.23-1.3,19.88,19.88,0,0,0,2.61-1.61,34.3,34.3,0,0,0,4.45,2.54,25.84,25.84,0,0,0,5.72,2h.11a.54.54,0,0,0,.51-.32A14.8,14.8,0,0,1,118,94a8.46,8.46,0,0,1,3.54-1.52,9,9,0,0,1,1.7-.14,23,23,0,0,1,2.84.22l.89.13a32.33,32.33,0,0,0,3.72.35h.18a15,15,0,0,0,3.92-.57,13.2,13.2,0,0,0,6.65-4.11,13.64,13.64,0,0,1,4.71,3.84,9.56,9.56,0,0,1,1.45,2.93,11.57,11.57,0,0,1,.37,1.81,7.3,7.3,0,0,1,0,1.68c0,.36-.08.72-.09,1.1a.58.58,0,0,0,.45.57,41.1,41.1,0,0,0,8.16.73h1.29c7.06-.15,12.8-1.83,17.06-5A18.79,18.79,0,0,0,181,88.17a27.16,27.16,0,0,0,1.71-6.41A34,34,0,0,0,183.06,74.59Z"/><path class="cls-28" d="M110.08,31s-2.75-11.63,3.06-12.86,11.64,9.49,11.64,9.49Z"/><path class="cls-22" d="M110.67,28.28a15.46,15.46,0,0,0,3.41-5.3c1-3.27,2.72-4.63,4.22-3.27s.4,5.72.13,6.12-2,2.73-2.86,2.73a12.42,12.42,0,0,0-2.31.4Z"/><path class="cls-29" d="M118.36,19.71c-1.64-.18-2.8,1-3.6,3a30.51,30.51,0,0,1-3.54,6l.26,1.95,13.3-3.05S122,22.47,118.36,19.71Z"/><path class="cls-23" d="M118.38,21.41c-.23.38-1.14-.37-2.24-1s-2-1-1.73-1.35,1.31-.17,2.41.49S118.61,21,118.38,21.41Z"/><path class="cls-1" d="M110.18,30.93c-.91-3.85-1.92-13.4,4.41-12.8,2.91.28,5.31,2.88,7,5a29.73,29.73,0,0,1,3.06,4.5c.06.12.24,0,.18-.1a29.27,29.27,0,0,0-4.33-6c-2.05-2.2-5.47-4.86-8.59-3.13-2.36,1.3-2.64,4.64-2.62,7A25.08,25.08,0,0,0,110,31c0,.13.23.07.2-.06Z"/><path class="cls-30" d="M91.62,52.08s-10.25-6.15-7.06-11.17,14.92-1.69,14.92-1.69Z"/><path class="cls-22" d="M90.12,49.79a15.58,15.58,0,0,0-1.42-6.14c-1.67-3-1.41-5.18.61-5.3s4.37,3.7,4.48,4.18.52,3.36-.05,3.94a12.64,12.64,0,0,0-1.33,1.94Z"/><path class="cls-31" d="M89.35,38.31C88.08,39.34,88.13,41,89,43a30.15,30.15,0,0,1,1.81,6.71l1.58,1.18,7.11-11.64S93.87,37.63,89.35,38.31Z"/><path class="cls-23" d="M90.58,39.47c.12.44-1.06.56-2.3.89s-2.06.73-2.17.29.79-1,2-1.38S90.47,39,90.58,39.47Z"/><path class="cls-1" d="M91.67,52c-3.39-2-10.94-8-6.08-12.11,2.24-1.88,5.77-1.79,8.5-1.54a29.55,29.55,0,0,1,5.36,1,.1.1,0,0,0,0-.2A29,29,0,0,0,92.2,38c-3-.07-7.29.52-8.23,4-.72,2.6,1.47,5.13,3.19,6.79a25.42,25.42,0,0,0,4.41,3.38c.11.07.21-.11.1-.17Z"/><path class="cls-32" d="M93.47,80.13s-12,.43-12-5.52S93,65.06,93,65.06Z"/><path class="cls-22" d="M91,79a15.51,15.51,0,0,0-4.54-4.38c-3-1.57-4-3.57-2.38-4.78s5.68.72,6,1.07,2.27,2.53,2.11,3.33a12.07,12.07,0,0,0-.05,2.35Z"/><path class="cls-33" d="M84.05,69.82c-.5,1.56.46,2.93,2.23,4.11a30.43,30.43,0,0,1,5.18,4.64l2,.12L93,65.06S87.47,66.79,84.05,69.82Z"/><path class="cls-23" d="M85.72,70.12c.33.31-.59,1-1.44,2S83,73.85,82.61,73.55s.09-1.31,1-2.26S85.39,69.82,85.72,70.12Z"/><path class="cls-1" d="M93.46,80c-4,.14-13.53-.74-11.69-6.83.84-2.8,3.85-4.65,6.28-5.93a29.47,29.47,0,0,1,5-2.11c.13,0,.06-.24-.07-.2A29.47,29.47,0,0,0,86.3,68c-2.56,1.58-5.83,4.41-4.75,7.81.82,2.57,4,3.5,6.38,4a25.11,25.11,0,0,0,5.54.43c.13,0,.12-.21,0-.2Z"/><path class="cls-34" d="M103.65,94.36s-7.27,6.19-10.25,2.49,2.52-11.72,2.52-11.72Z"/><path class="cls-22" d="M101.53,94.91a12.45,12.45,0,0,0-5-.49c-2.67.51-4.28-.26-3.85-1.81s3.91-2.37,4.3-2.32,2.68.46,3,1a9.39,9.39,0,0,0,1.13,1.5Z"/><path class="cls-35" d="M92.65,92.56c.46,1.23,1.74,1.62,3.43,1.47a24.38,24.38,0,0,1,5.54.35l1.29-.9-7-8.35A23,23,0,0,0,92.65,92.56Z"/><path class="cls-23" d="M93.84,91.93c.36,0,.16.95.09,2s0,1.74-.33,1.72-.6-.87-.53-1.89S93.48,91.91,93.84,91.93Z"/><path class="cls-1" d="M103.6,94.3c-2.41,2-8.84,6.24-10.71,1.51C92,93.64,93,91,93.89,89A23.93,23.93,0,0,1,96,85.18a.08.08,0,0,0-.14-.09,23.85,23.85,0,0,0-2.68,5.25c-.81,2.25-1.46,5.65.9,7.24,1.78,1.2,4.26.19,6-.69a20.67,20.67,0,0,0,3.69-2.47c.08-.07,0-.19-.11-.12Z"/><path class="cls-36" d="M135.35,25.8s3.24-10.37,8.36-8.63S148.4,30,148.4,30Z"/><path class="cls-22" d="M137.06,24a14.1,14.1,0,0,0,5.12-2.57c2.26-2.12,4.27-2.36,4.81-.6s-2.33,4.66-2.73,4.85-2.86,1.18-3.5.8a10.86,10.86,0,0,0-2-.75Z"/><path class="cls-37" d="M147,20.85c-1.19-.9-2.65-.5-4.2.67a27.64,27.64,0,0,1-5.54,3l-.69,1.64L148.4,30S148.6,24.69,147,20.85Z"/><path class="cls-23" d="M146.27,22.18c-.36.2-.73-.81-1.28-1.84s-1.08-1.66-.72-1.85,1.1.47,1.65,1.49S146.63,22,146.27,22.18Z"/><path class="cls-1" d="M135.44,25.83c1.08-3.43,4.71-11.37,9.39-8C147,19.44,147.65,22.58,148,25a27.32,27.32,0,0,1,.3,4.95c0,.11.18.12.18,0a26.28,26.28,0,0,0-.61-6.68c-.59-2.67-2-6.33-5.26-6.43-2.45-.07-4.22,2.4-5.31,4.28a23,23,0,0,0-2.05,4.62.09.09,0,0,0,.18,0Z"/><path class="cls-38" d="M153.63,29.39s7.27-5.82,10.08-2.13-2.81,11.37-2.81,11.37Z"/><path class="cls-22" d="M155.71,28.92a12.25,12.25,0,0,0,4.88.63c2.61-.42,4.16.37,3.7,1.88s-3.89,2.19-4.26,2.14-2.6-.53-2.88-1.11A9.46,9.46,0,0,0,156.09,31Z"/><path class="cls-39" d="M164.31,31.47c-.41-1.21-1.65-1.63-3.31-1.54a23.68,23.68,0,0,1-5.4-.49l-1.28.84,6.58,8.35A22.2,22.2,0,0,0,164.31,31.47Z"/><path class="cls-23" d="M163.13,32.05c-.35,0-.13-.93,0-1.92s0-1.7.38-1.67.55.87.46,1.86S163.48,32.09,163.13,32.05Z"/><path class="cls-1" d="M153.68,29.46c2.41-1.93,8.8-5.83,10.49-1.17.78,2.15-.25,4.7-1.18,6.63a22.79,22.79,0,0,1-2.15,3.66c-.06.08.07.17.13.09a23.11,23.11,0,0,0,2.77-5c.86-2.18,1.59-5.47-.67-7.1-1.71-1.23-4.15-.31-5.83.5a20.54,20.54,0,0,0-3.67,2.3c-.08.07,0,.19.11.13Z"/><path class="cls-40" d="M163,45.68s7.66-2.23,8.67,1.61-5.93,8.07-5.93,8.07Z"/><path class="cls-22" d="M164.8,46a10.29,10.29,0,0,0,3.65,2.08c2.2.53,3.17,1.66,2.31,2.7s-3.79.47-4.07.3-1.88-1.27-1.91-1.81a8.22,8.22,0,0,0-.35-1.53Z"/><path class="cls-41" d="M170.76,50.81c.07-1.09-.77-1.82-2.11-2.29a20.7,20.7,0,0,1-4.11-2.16l-1.29.24,2.48,8.76A19.14,19.14,0,0,0,170.76,50.81Z"/><path class="cls-23" d="M169.64,50.89c-.27-.14.2-.78.6-1.53s.58-1.34.85-1.2.15.87-.25,1.62S169.9,51,169.64,50.89Z"/><path class="cls-1" d="M163,45.75c2.54-.74,8.87-1.74,8.68,2.5-.09,2-1.74,3.64-3.1,4.86a19.35,19.35,0,0,1-2.9,2.19.07.07,0,0,0,.08.11,19.61,19.61,0,0,0,3.83-3.08c1.4-1.44,3.05-3.8,1.8-5.83-1-1.52-3.18-1.6-4.77-1.51a16.8,16.8,0,0,0-3.66.63c-.08,0,0,.15,0,.13Z"/><path class="cls-42" d="M172.32,58.7l-7.74,5.77,2.84-10.88a41.8,41.8,0,0,0-3.18-14.12c-1.8-4-5.72-8.28-9.28-10.84-4.93-3.53-13.31-5.46-19.25-6a50.69,50.69,0,0,0-16.33,1.84C103.65,28.69,90.59,43.61,89,59.92c-3.27,34.3,24.08,39.81,24.08,39.81,1.49-3.28,3.68-6.45,7.28-7.56,3.79-1.17,7.75.62,11.61.24a13.32,13.32,0,0,0,9.28-4.73l.06,0c4,2,7,4.9,7.29,10,0,.61-.2,1.42-.2,2,0,0,28.74,5.87,33.27-15.92C186,63.19,172.32,58.7,172.32,58.7Z"/><path class="cls-43" d="M119.21,60.05a4.54,4.54,0,1,1-4.54-4.54A4.54,4.54,0,0,1,119.21,60.05Z"/><path class="cls-44" d="M158.66,61.27a4.49,4.49,0,1,1-4.49-4.49A4.49,4.49,0,0,1,158.66,61.27Z"/><path class="cls-45" d="M158.64,47.57c0,7.89-10.67,14.34-23.92,14.4s-24-6.3-24-14.19,10.68-14.33,23.93-14.39S158.61,39.68,158.64,47.57Z"/><path class="cls-46" d="M127.41,60.81s-.54-8.44,4.63-11c0,0,5.72-2.85,10.07-.54a9.18,9.18,0,0,1,5.31,9.12l-6.67,1.77h-6.67Z"/><path class="cls-47" d="M127.67,64.46a4.93,4.93,0,0,0,3.83,2.35A4.13,4.13,0,0,0,135.17,65l-3.11.61s-2-.46-2.2-.46S127.67,64.46,127.67,64.46Z"/><path class="cls-47" d="M143,63.49a2.69,2.69,0,0,0,2.35.82,2.3,2.3,0,0,0,1.94-1.73l-1.79.86-1.48,0C143.9,63.39,143,63.49,143,63.49Z"/><path class="cls-48" d="M127.31,64.11c4.59,4.59,8.37.41,8.37.41C132.21,65.84,127.31,64.11,127.31,64.11Zm15.17-1c3.42,2.61,5.25-1.2,5.25-1.2C145.92,63.59,142.48,63.13,142.48,63.13Z"/><path class="cls-49" d="M142.79,87.89c-.27-.41-.41-2.32-1.77-2.59s-2.31-1.22-6.12-1.9-5.17-1-7.08-1.77a13.32,13.32,0,0,1-3.94-2.45,8,8,0,0,1-1.64-1.91,21.27,21.27,0,0,1-1.77-3.67,17.65,17.65,0,0,1-.41-2.18l-.68-3.4s-3.53,5.31,1.5,11.57,9.76,6.18,7.76,9.52c-1.22,2-12.62-2.24-14.79,9.13,1.46-2.71,3.5-5.13,6.55-6.07,3.79-1.17,7.75.62,11.61.24a13.32,13.32,0,0,0,9.28-4.73l.06,0c.52.26,1,.54,1.49.83A1.37,1.37,0,0,0,142.79,87.89Z"/><path class="cls-50" d="M148.64,97.69c0,.61-.2,1.42-.2,2,0,0,28.74,5.87,33.27-15.92,2.39-11.49-.8-18-4.09-21.46-1.71.27-3.67.63-3.67.63s-10.68,3.75-17.28,5.24a23.34,23.34,0,0,1-12.45-.81l-4,.81L133.74,77l-2.11,7c2.42.33,9.16,3.41,9.69,3.66l0,0C145.34,89.68,148.34,92.55,148.64,97.69Z"/><path class="cls-51" d="M120.68,70.54a13.35,13.35,0,0,0,9,7.14c6.53,1.43,19,3.88,21.84,10s4.7,10,8.37,11.23l-5.92-1-3.27-4.08s-7.75-6.74-8.57-7.35a11.72,11.72,0,0,0-3.67-2.25c-1.84-.61-2.86-1.43-5.31-2S129.66,81,128,80.54a10.81,10.81,0,0,1-4.09-1.63,12.08,12.08,0,0,1-2.45-2,8.52,8.52,0,0,1-1.22-2.25Z"/><path class="cls-52" d="M148.1,86.8c-5.11-5-19.26-6.53-23.34-9.12s-4.42-9.8-4.42-9.8h-1C116.93,79.59,129.05,83,129.05,83c5.44,1.77,12.24,4.63,12.24,4.63v.07h0l.06,0c4,2,7,4.9,7.29,10,0,.61-.2,1.42-.2,2a45.45,45.45,0,0,0,17.35-.28C152.86,99.86,154.49,93.06,148.1,86.8Z"/><path class="cls-53" d="M138.74,62s3.06,8.78,17.66,6.33l4.08.51.72.92S142.11,74.82,138.74,62Z"/><path class="cls-42" d="M181.71,83.81c2.37-11.38-.74-17.84-4-21.35l.18.52C187.56,90.2,165,99.59,165,99.59l0,0C172.25,98.09,179.6,93.94,181.71,83.81Z"/><path class="cls-54" d="M110.67,98.3s-22-14.49-12-43.07c0,0,11.84-26.54,42.66-23.07,0,0,18.17,1.43,22.46,20L165.38,54l.41-2.65s-2.25-16.13-14.7-20.82S120.06,23,106.8,36,90.26,66.86,92.92,77.89,104.35,96.46,110.67,98.3Z"/><path class="cls-55" d="M94.55,58.7s7.14-31.44,42.87-30c0,0,23.67-.2,27.35,23.48,0,0,.86,1.42,1.73,2.63l.92-1.21a41.8,41.8,0,0,0-3.18-14.12c-1.8-4-5.72-8.28-9.28-10.84-4.93-3.53-13.31-5.46-19.25-6a50.69,50.69,0,0,0-16.33,1.84C103.65,28.69,90.59,43.61,89,59.92c-3.1,32.52,21.34,39.16,23.87,39.76v-.16S88.83,91.15,94.55,58.7Z"/><path class="cls-56" d="M119.34,25.88c-3.88,1.13-6.83,2.75-6.58,3.61s3.14-.34,7-1.47,7.3-1.75,7-2.62S123.23,24.75,119.34,25.88Zm9.57-1.75a.89.89,0,1,0,.88.89A.88.88,0,0,0,128.91,24.13Zm-18,5.85a.75.75,0,1,0,.75.75A.76.76,0,0,0,110.88,30Z"/><path class="cls-22" d="M142.42,69.17c.75.31,1.4.52,1.62,0s-.23-1.19-1-1.5a1.31,1.31,0,0,0-1.74.4C141.11,68.59,141.67,68.87,142.42,69.17Zm4.72,2.17c.15-.38-.16-.85-.69-1.07s-1.09-.09-1.24.28.24.57.78.79S147,71.71,147.14,71.34Zm-3.26-.53a.71.71,0,0,0-.95.21c-.11.28.19.44.6.6s.76.28.88,0S144.28,71,143.88,70.81Zm-2.47-.49c.11-.26-.11-.58-.47-.73s-.75-.07-.86.19.17.39.54.54S141.31,70.57,141.41,70.32Zm.68,2.31c.11-.25-.11-.58-.47-.73s-.75-.07-.86.19.17.39.54.54S142,72.89,142.09,72.63Zm-3.18-1.86c-.33-.22-.72-.22-.87,0s.08.42.41.64.63.39.78.16S139.24,71,138.91,70.77Zm13.33.73c.06-.56-.54-1.09-1.34-1.18s-1.5.29-1.57.85.55.68,1.35.77S152.17,72.06,152.24,71.5Zm2.71,0c-.57-.07-1.07.2-1.11.6s.38.48.95.55,1.06.09,1.11-.31S155.52,71.54,155,71.48Zm-.82,3.16c-.57-.06-1.06.21-1.11.61s.39.48,1,.54,1.06.09,1.1-.31S154.7,74.71,154.13,74.64Zm-2.55-2c-.43,0-.81.16-.85.46s.3.37.74.42.81.07.84-.24S152,72.65,151.58,72.6Zm-2.5.19c0-.27-.26-.53-.66-.58s-.73.14-.77.42.27.33.67.38S149.05,73.07,149.08,72.79Zm-6.71,1.42c-.39,0-.74.14-.77.42s.27.33.66.38.74.06.77-.22S142.76,74.26,142.37,74.21Zm3-.51c-.39,0-.74.14-.77.42s.27.33.66.38.74.06.77-.22S145.72,73.75,145.33,73.7Zm4.37.56c-.39-.05-.74.14-.77.41s.27.34.66.38.74.06.77-.21S150.09,74.31,149.7,74.26Zm-2.28,2.09c-.33,0-.61.12-.64.35s.22.27.55.31.61,0,.63-.18S147.74,76.39,147.42,76.35Z"/><path class="cls-1" d="M182.6,74.62c-.33-5.71-2.72-11.29-7.53-14.58a11.94,11.94,0,0,0-2.71-1.44c-.09,0-.19.08-.26.14l-.94.69L167.71,62l-6.47,4.82a.79.79,0,0,1-.43.21l-2,.55c-.78.22-1.56.48-2.36.64a24.68,24.68,0,0,1-6.59.35c-3.48-.26-7-1.41-9.38-4.1a10.57,10.57,0,0,1-1.71-2.77c0-.12-.23,0-.18.1,2.76,6.38,10.24,7.6,16.44,6.84a35.26,35.26,0,0,0,5-1.19,3.73,3.73,0,0,0,1.11-.31l.52-.39,3-2.24,7.09-5.28.56-.42.11,0a10.43,10.43,0,0,1,1.22.57A17.18,17.18,0,0,1,182,71.54a30.83,30.83,0,0,1-.82,13.9,18.78,18.78,0,0,1-5.44,9c-4.58,4.14-10.94,5.62-16.95,5.9a44,44,0,0,1-10.31-.66,15.05,15.05,0,0,0,.23-2.14,13.35,13.35,0,0,0-.32-2.09,10.56,10.56,0,0,0-1.58-3.48,15.11,15.11,0,0,0-5.93-4.62c-5.05-2.45-10.74-3.42-15.62-6.26a12.25,12.25,0,0,1-4.87-4.81,13.21,13.21,0,0,1-.86-8.32,5.7,5.7,0,0,1,.92.07c.13,0,.13-.19,0-.21a7.31,7.31,0,0,0-4.54.83.1.1,0,0,0,.1.18,7,7,0,0,1,3.31-.87,13.44,13.44,0,0,0,1,8.55,12.82,12.82,0,0,0,5.36,5c4.89,2.7,10.52,3.67,15.51,6.17a12.79,12.79,0,0,1-6.83,4.23,14.38,14.38,0,0,1-4.33.44c-1.53-.08-3-.36-4.56-.54a10.67,10.67,0,0,0-7.79,1.64,14.73,14.73,0,0,0-4.37,5.69c0,.08-.25.48-.15.5l-.08,0-.32-.08c-.42-.1-.84-.22-1.25-.35a32.48,32.48,0,0,1-4.37-1.77,32.08,32.08,0,0,1-11.64-9.64C90.93,81.6,89,74,88.88,66.4a43.22,43.22,0,0,1,2.06-14.77,42.08,42.08,0,0,1,7.35-13.09,41.78,41.78,0,0,1,25.89-15,50,50,0,0,1,9.13-.87,43.77,43.77,0,0,1,7.73.86c5,.95,10.24,2.49,14.38,5.58a28.09,28.09,0,0,1,8.74,10.43,40.12,40.12,0,0,1,3.16,14.07c0,.14.21.14.2,0a46.84,46.84,0,0,0-1.3-8.64,28.16,28.16,0,0,0-3.11-7.82,30.78,30.78,0,0,0-5.53-6.51,25,25,0,0,0-6.19-4.15,46.9,46.9,0,0,0-14.73-3.82,48,48,0,0,0-17.14,1.7A42.36,42.36,0,0,0,96.14,41a41.21,41.21,0,0,0-6.2,13.23,46,46,0,0,0-1.17,14.51,35.74,35.74,0,0,0,7.21,20,32.31,32.31,0,0,0,11.51,9.06,25.22,25.22,0,0,0,5.61,2,.12.12,0,0,0,.11,0,15.4,15.4,0,0,1,4.55-6.16A8.83,8.83,0,0,1,121.49,92a15.37,15.37,0,0,1,4.69.09,43.21,43.21,0,0,0,4.56.47,14.34,14.34,0,0,0,4-.55,12.89,12.89,0,0,0,6.46-4l.2-.24a14.48,14.48,0,0,1,5.2,4.14A10,10,0,0,1,148.08,95a10.82,10.82,0,0,1,.39,1.88,19.5,19.5,0,0,1-.13,2.86.11.11,0,0,0,.07.1,43.11,43.11,0,0,0,9.35.71c5.86-.13,12-1.34,16.8-4.89a18.38,18.38,0,0,0,6-7.65,27,27,0,0,0,1.67-6.32A33.37,33.37,0,0,0,182.6,74.62Z"/><polygon class="cls-1" points="131.29 50.74 133.84 49.92 133.44 48.9 130.99 49.72 131.29 50.74"/><polygon class="cls-1" points="140.77 49.14 143.13 50.41 143.58 49.4 141.29 48.21 140.77 49.14"/><path class="cls-57" d="M147.21,60a4.64,4.64,0,0,0-2.14-5.65c-1.94-1.12-5.61-1.43-7,.41a5.72,5.72,0,0,0-1,3.92c.12,1.16.62,2.74,1.78,3.15a22.17,22.17,0,0,0,3.66.73A4,4,0,0,0,147.21,60Z"/><path class="cls-58" d="M138.81,61.79a22.17,22.17,0,0,0,3.66.73,4.09,4.09,0,0,0,4.35-1.77c-2.54,2.27-8.49,0-8.49,0l-.54.21A2.14,2.14,0,0,0,138.81,61.79Z"/><path class="cls-1" d="M147.31,60a4.79,4.79,0,0,0-1.67-5.43,7.11,7.11,0,0,0-5.89-1c-2.22.6-3,3-2.82,5.12A4.57,4.57,0,0,0,138,61.38c.77.84,2.28.91,3.33,1.07a6.54,6.54,0,0,0,3.77-.09,4.2,4.2,0,0,0,2.2-2.37c.05-.12-.15-.18-.2-.05a4,4,0,0,1-2.45,2.37,8.64,8.64,0,0,1-4.1-.19,7.55,7.55,0,0,1-1.93-.52A2.73,2.73,0,0,1,137.44,60a6.17,6.17,0,0,1-.07-3.8,3.5,3.5,0,0,1,2.43-2.51,6.87,6.87,0,0,1,3.43,0,4.92,4.92,0,0,1,4.14,5,4.17,4.17,0,0,1-.26,1.19C147.07,60.06,147.26,60.11,147.31,60Z"/><path class="cls-59" d="M144.05,58.21a2.78,2.78,0,1,1-2.78-2.78A2.78,2.78,0,0,1,144.05,58.21Z"/><path class="cls-1" d="M143.23,58.21a2,2,0,1,1-2-2A2,2,0,0,1,143.23,58.21Z"/><path class="cls-23" d="M142.79,57.27c0,.86-.53.34-1.39.34s-1.74.52-1.74-.34a1.57,1.57,0,1,1,3.13,0Z"/><path class="cls-23" d="M141.64,59.77c0,.15-.18.26-.4.26s-.4-.11-.4-.26.18-.27.4-.27S141.64,59.62,141.64,59.77Z"/><path class="cls-60" d="M139.05,59.31c0,3.21-2.27,5-5.82,5s-5.71-1.48-5.71-4.69,1.55-6.13,5.1-6.13S139.05,56.1,139.05,59.31Z"/><path class="cls-58" d="M133.23,64.31c3.05,0,5.16-1.32,5.69-3.74-.54,1-1.92,2.59-5.38,2.92a5.33,5.33,0,0,1-6-4.48c0,.2,0,.4,0,.61C127.52,62.83,129.68,64.31,133.23,64.31Z"/><path class="cls-1" d="M139,59.31a4.93,4.93,0,0,1-1,3,4.86,4.86,0,0,1-2.58,1.59c-2,.57-4.84.43-6.49-1s-1.5-4.1-.88-6a5.07,5.07,0,0,1,1.9-2.6,5.2,5.2,0,0,1,3.43-.71A6,6,0,0,1,139,59.31a.1.1,0,0,0,.2,0,5.91,5.91,0,0,0-3.07-5,6.27,6.27,0,0,0-6.15-.19c-1.71,1-2.38,3.09-2.5,5a4.57,4.57,0,0,0,2.15,4.56,7.06,7.06,0,0,0,3.06.76,8.41,8.41,0,0,0,3.52-.49,4.78,4.78,0,0,0,3-4.6A.1.1,0,0,0,139,59.31Z"/><path class="cls-61" d="M136.29,58.6A3.27,3.27,0,1,1,133,55.33,3.26,3.26,0,0,1,136.29,58.6Z"/><path class="cls-1" d="M135.34,58.6A2.31,2.31,0,1,1,133,56.29,2.31,2.31,0,0,1,135.34,58.6Z"/><path class="cls-23" d="M134.81,57.48c0,1-.62.41-1.63.41s-2,.61-2-.41a1.84,1.84,0,0,1,3.67,0Z"/><path class="cls-23" d="M133.54,60.28c0,.2-.24.36-.54.36s-.53-.16-.53-.36.24-.36.53-.36S133.54,60.08,133.54,60.28Z"/><path class="cls-62" d="M156.4,68.5s14.15,5.37,21.64-5.72c0,0-5.85-11-13.2-10.82S161.16,62.17,156.4,68.5Z"/><path class="cls-63" d="M156.4,68.5s14.15,5.37,21.64-5.72c0,0-5.85-11-13.2-10.82S161.16,62.17,156.4,68.5Z"/><path class="cls-22" d="M156.67,68.43s6.13-1.77,7.89-5.45,4.22-8.7,8.44-6.8l-3,8.17-3.4,3.12-7.76,1.37Z"/><path class="cls-64" d="M178,62.78a32.58,32.58,0,0,0-4.77-6.47c-4.22-1.88-5.6,3.12-7.34,7.35-1,2.32-9.53,4.84-9.53,4.84S170.55,73.87,178,62.78Z"/><path class="cls-23" d="M172.65,58.45c-.49.71-2.14-.7-3.74-1.82s-2.52-1.55-2-2.25,2.2-.37,3.79.76S173.15,57.75,172.65,58.45Z"/><path class="cls-1" d="M156.37,68.59a21.39,21.39,0,0,0,4.87,1.12,19.52,19.52,0,0,0,10.12-1.19,15.62,15.62,0,0,0,6.77-5.69.12.12,0,0,0,0-.1,30.29,30.29,0,0,0-4-5.65c-2.41-2.71-5.69-5.37-9.52-5.21a4.53,4.53,0,0,0-3.5,1.65,9.73,9.73,0,0,0-1.51,4.14c-.7,3.72-.94,7.64-3.28,10.78-.08.11.1.21.18.11,2.46-3.32,2.61-7.47,3.4-11.36a7,7,0,0,1,2-4.2c1.41-1.18,3.56-1.08,5.23-.61,3.68,1,6.55,4.22,8.73,7.21a33.18,33.18,0,0,1,1.9,2.92l.15.27c.05.09-.39.55-.49.68A16,16,0,0,1,175,66c-4.93,4.21-12.15,4.42-18.09,2.52l-.48-.16C156.3,68.35,156.25,68.55,156.37,68.59Z"/><path class="cls-65" d="M75.18,17.49C91.1,11.06,119,12.59,119,12.59,95.39,7.08,75.18,17.49,75.18,17.49Zm105.17,59c-.54,5-4.08,13.2-4.08,13.2C181.17,82.72,180.35,76.46,180.35,76.46Zm-151.94-12c3.27-4.49,13.88-16.33,13.88-16.33C32.9,54.21,28.41,64.41,28.41,64.41Z"/></svg>