<svg xmlns="http://www.w3.org/2000/svg" xmlns:xlink="http://www.w3.org/1999/xlink" viewBox="0 0 25 25"><defs><style>.cls-1{stroke:#754c24;stroke-miterlimit:10;fill:url(#Foliage_19);}.cls-2{fill:#4a2f00;}.cls-3{fill:#faecbf;}.cls-4{fill:#e3d08b;}</style><linearGradient id="Foliage_19" x1="6.5" y1="2.11" x2="18.5" y2="22.89" gradientUnits="userSpaceOnUse"><stop offset="0.01" stop-color="#f4e7ce"/><stop offset="0.5" stop-color="#ecd5aa"/><stop offset="0.99" stop-color="#bbac8e"/></linearGradient></defs><g id="Layer_2" data-name="Layer 2"><g id="Layer_1-2" data-name="Layer 1"><circle class="cls-1" cx="12.5" cy="12.5" r="12"/><path class="cls-2" d="M3.42,10.2a2.46,2.46,0,0,1,.72-.37l.3-.08a2.82,2.82,0,0,1,1.38.08,2.72,2.72,0,0,1,.86.45,3,3,0,0,1,.4.39c.06.08.09.17.15.25a1.07,1.07,0,0,0,.31.29A1.09,1.09,0,0,0,8,11.3l.67-.05a4.35,4.35,0,0,0,.52-.1l.33-.07c.11,0,.22,0,.33-.06a3.36,3.36,0,0,0,.48-.14l.6-.18.49-.15c.3-.1.62-.18.93-.27a15,15,0,0,0,3-1.32.92.92,0,0,0,.31-.31c.11-.14.19-.29.29-.43a9.77,9.77,0,0,1,.68-1,2.26,2.26,0,0,1,.47-.4,4.11,4.11,0,0,1,.76-.37l.39-.12a2.57,2.57,0,0,1,.61-.09,4.05,4.05,0,0,1,.7,0,2.79,2.79,0,0,1,1,.26,3.46,3.46,0,0,1,.57.31,1,1,0,0,1,.42.66,1.85,1.85,0,0,1-.05.66,2.16,2.16,0,0,1-.26.65,4.52,4.52,0,0,0-.35.74c.26.16.58.22.85.36a3.7,3.7,0,0,1,.33.21,1.44,1.44,0,0,1,.47.51,1.42,1.42,0,0,1,.13.61,2.41,2.41,0,0,1-.17.74,3,3,0,0,1-.67,1.06,2.63,2.63,0,0,1-1.27.73,2.73,2.73,0,0,1-2.62-.68,3,3,0,0,1-.41-.53l-.1-.14a.75.75,0,0,0-.2-.15.71.71,0,0,0-.25-.11,2.6,2.6,0,0,0-.56-.07,5.14,5.14,0,0,0-.88.05,9.53,9.53,0,0,0-1.19.2,14.41,14.41,0,0,0-1.46.43l-.3.09a12.06,12.06,0,0,0-1.79.74l-.36.18-.32.17a3.86,3.86,0,0,0-.51.31l-.23.2a.73.73,0,0,0-.14.16c-.05.09-.12.18-.17.28l-.21.4c-.2.35-.37.73-.6,1.06a3.26,3.26,0,0,1-.34.4,3.85,3.85,0,0,1-.3.27l-.28.2a2.27,2.27,0,0,1-.7.34l-.23.06a3.16,3.16,0,0,1-.76.09,1.08,1.08,0,0,1-.31,0l-.45-.06a1.28,1.28,0,0,1-.28-.07,1.69,1.69,0,0,1-.41-.19,1.32,1.32,0,0,1-.2-.12,1,1,0,0,1-.28-.34,1.51,1.51,0,0,1-.11-.22,1.34,1.34,0,0,1-.08-.66,3.69,3.69,0,0,1,.11-.56c.13-.45.4-.84.51-1.3-.27-.15-.58-.19-.85-.33l-.22-.15a1.49,1.49,0,0,1-.5-.5,1.57,1.57,0,0,1-.19-.74,2.93,2.93,0,0,1,.17-.92,2.84,2.84,0,0,1,.4-.82,2.24,2.24,0,0,1,.49-.53m.44,0a2,2,0,0,0-.24.16,1.52,1.52,0,0,0-.44.47,2.67,2.67,0,0,0-.22.45,1.46,1.46,0,0,0-.16.41,1.28,1.28,0,0,0,0,.27c0,.08,0,.16,0,.25s0,.18,0,.27a1.18,1.18,0,0,0,.26.72,2,2,0,0,0,.91.58l.16.05a.14.14,0,0,0,.11,0,.53.53,0,0,0,.06-.24,1.36,1.36,0,0,0-.06-.36A.84.84,0,0,0,4.06,13a.42.42,0,0,1,.12,0,.47.47,0,0,1,.21.23,1.53,1.53,0,0,1,.12.82,5,5,0,0,1-.11.66,2.5,2.5,0,0,0-.09.25c0,.11-.13.2-.16.31l-.1.27a3.21,3.21,0,0,0-.12.33,1.34,1.34,0,0,0-.06.4,1,1,0,0,0,.34.75,1.44,1.44,0,0,0,.39.25,2.46,2.46,0,0,0,.71.12l.16,0c.1,0,.2,0,.3,0a3.43,3.43,0,0,0,.56,0,1.88,1.88,0,0,0,.46-.14l.15-.07a5.2,5.2,0,0,0,.47-.35,2.36,2.36,0,0,0,.42-.47,6.43,6.43,0,0,0,.62-1.08,3.73,3.73,0,0,1,.3-.6A3.44,3.44,0,0,1,9,14.37l-.33.1a1.77,1.77,0,0,1-.33.08h0l.05,0L9,14.17c.25-.14.5-.26.76-.38l.71-.32c.26-.11.5-.24.75-.36s.59-.25.9-.36l.42-.11.55-.16.21-.07c.4-.14.8-.28,1.21-.38s.68-.15,1-.21a6.38,6.38,0,0,1,1-.09,2,2,0,0,1,.64.08,2.44,2.44,0,0,1,.89.61c.16.16.31.33.46.5a2.48,2.48,0,0,0,.58.49,1.3,1.3,0,0,0,.46.18,1.73,1.73,0,0,0,.68,0,2.49,2.49,0,0,0,.85-.32,2.4,2.4,0,0,0,.85-.91,2.63,2.63,0,0,0,.36-1,1.11,1.11,0,0,0-.23-.74,1.78,1.78,0,0,0-.45-.37,3.69,3.69,0,0,0-.64-.29.16.16,0,0,0-.17.06,1,1,0,0,0,.12.75,1.17,1.17,0,0,1-.3-.24.54.54,0,0,1-.11-.27,2,2,0,0,1,0-.76.86.86,0,0,1,.07-.21c.05-.13.14-.25.2-.39a2.39,2.39,0,0,0,.13-.28A2.53,2.53,0,0,0,21,8.22c0-.09,0-.18,0-.26a1,1,0,0,0,0-.45A1.15,1.15,0,0,1,21,7.34a.85.85,0,0,0-.09-.22,1.05,1.05,0,0,0-.49-.44,1.67,1.67,0,0,0-.54-.15c-.15,0-.31,0-.47-.06a1.23,1.23,0,0,0-.27,0h-.35a.86.86,0,0,0-.28,0l-.26,0-.29.1a3.48,3.48,0,0,0-.74.51,5,5,0,0,0-.82,1.12,6.59,6.59,0,0,1-.34.57,3.73,3.73,0,0,1,.58-.12v.05a3.35,3.35,0,0,1-.37.2c-.33.16-.66.3-1,.43a3,3,0,0,0-.41.17l-.6.29c-.51.22-1,.42-1.56.61-.22.08-.45.13-.67.2l-.52.15c-.28.1-.56.2-.84.28a14.73,14.73,0,0,1-1.74.43,4.23,4.23,0,0,1-1,.09,1.72,1.72,0,0,1-.84-.31.86.86,0,0,1-.19-.19l-.2-.37a1.07,1.07,0,0,0-.51-.43c-.2-.09-.39-.19-.59-.26A1.42,1.42,0,0,0,5.17,10a2.77,2.77,0,0,0-.41,0l-.23,0a2.33,2.33,0,0,0-.36.08,1.73,1.73,0,0,0-.31.14Z"/><path class="cls-3" d="M3.86,10.19a1.73,1.73,0,0,1,.31-.14A2.33,2.33,0,0,1,4.53,10l.23,0a2.77,2.77,0,0,1,.41,0,1.42,1.42,0,0,1,.41.08c.2.07.39.17.59.26a1.07,1.07,0,0,1,.51.43l.2.37a.86.86,0,0,0,.19.19,1.72,1.72,0,0,0,.84.31,4.23,4.23,0,0,0,1-.09,14.73,14.73,0,0,0,1.74-.43c.28-.08.56-.18.84-.28l.52-.15c.22-.07.45-.12.67-.2.53-.19,1.05-.39,1.56-.61l.6-.29a3,3,0,0,1,.41-.17c.34-.13.67-.27,1-.43a3.35,3.35,0,0,0,.37-.2V8.7a1.12,1.12,0,0,1,.12-.35l.16-.24a2.75,2.75,0,0,1,.17-.29,2.76,2.76,0,0,1,.36-.57A1.61,1.61,0,0,1,18,6.8a2.08,2.08,0,0,1,.54-.32.86.86,0,0,1,.28,0h.35a1.23,1.23,0,0,1,.27,0c.16,0,.32,0,.47.06l.23.14a1.92,1.92,0,0,1,.8,1.13,1.67,1.67,0,0,1,0,.63c0,.05,0,.1,0,.15a2.39,2.39,0,0,1-.13.28c-.06.14-.15.26-.2.39a.86.86,0,0,0-.07.21,2,2,0,0,0,0,.76.54.54,0,0,0,.11.27,1.17,1.17,0,0,0,.3.24,1,1,0,0,1-.12-.75l.23.08a1.38,1.38,0,0,1,.75.73c0,.1.06.21.1.32a1.2,1.2,0,0,1-.26,1.2c-.08.07-.13.16-.2.23a1.87,1.87,0,0,1-.3.26l-.24.13a1.65,1.65,0,0,1-.8.26,3,3,0,0,1-.6,0,1.81,1.81,0,0,1-.65-.29,1.92,1.92,0,0,0-.17-.13,1.68,1.68,0,0,1-.48-.36,1,1,0,0,0-.22-.18,1.68,1.68,0,0,1-.29-.25c-.05,0-.12-.09-.16-.14l-.14-.14-.15-.12-.12-.07c-.07,0-.13-.07-.2-.09a.7.7,0,0,0-.19-.06.66.66,0,0,0-.2,0l-.38.08-.58.13-.48.1-.57.15a2.67,2.67,0,0,0-.26.09l-.69.23c-.25.07-.49.16-.74.24s-.35.12-.53.18l-.41.14c-.36.15-.72.28-1.08.4a13.75,13.75,0,0,1-1.51.57,1.22,1.22,0,0,0-.33.14l-.24.13a.36.36,0,0,0-.1.11.26.26,0,0,0-.05.09c0,.13-.09.25-.12.37l-.05,0h0a7.86,7.86,0,0,1-.5,1.11,4.17,4.17,0,0,1-.69,1c-.07.08-.16.15-.24.23a1.67,1.67,0,0,1-1.24.44,1.64,1.64,0,0,1-1.48-2H4.15c0-.11.12-.2.16-.31a2.5,2.5,0,0,1,.09-.25A5,5,0,0,0,4.51,14a1.53,1.53,0,0,0-.12-.82A.47.47,0,0,0,4.18,13a.42.42,0,0,0-.12,0,.84.84,0,0,1,.12.23,1.36,1.36,0,0,1,.06.36.53.53,0,0,1-.06.24.44.44,0,0,0,0-.15S4,13.6,4,13.57a.81.81,0,0,1-.14-.12l-.15-.11a.82.82,0,0,1-.2-.25L3.44,13a2,2,0,0,1-.37-1.32,2,2,0,0,1,.43-1.1,2.45,2.45,0,0,1,.36-.36M18.05,7.33a.07.07,0,0,0,0,.11.07.07,0,0,0,.1,0,.07.07,0,0,0-.1-.07m-.4.45c-.08.06,0,.2.09.19a.09.09,0,0,0,.07-.12.1.1,0,0,0-.16-.07m.72,0a.07.07,0,0,0,0,.11s.08,0,.08,0-.06-.11-.1-.07m-.58.52a.13.13,0,0,0-.05.15.14.14,0,0,0,.19.09A.13.13,0,0,0,18,8.35a.14.14,0,0,0-.2-.08m.63,0a.07.07,0,0,0,0,.1s.07,0,.06-.05a.06.06,0,0,0-.1,0M6.53,11.57a.06.06,0,0,0,0,.09.06.06,0,0,0,.1,0,.06.06,0,0,0-.07-.08m.53.33A.21.21,0,0,0,7,12a0,0,0,0,0,0,0,.12.12,0,0,0,.1,0,.89.89,0,0,0,.28-.07.16.16,0,0,0,.08-.06s0,0-.06,0a.82.82,0,0,0-.3.07m.75-.2a.07.07,0,0,0,0,.11.06.06,0,0,0,.08-.06.06.06,0,0,0-.09-.05m8.22-2a.06.06,0,0,0,0,.1.05.05,0,0,0,.07,0c0-.05-.06-.08-.1-.05M8.42,11.91a.06.06,0,0,0,0,.11s.09,0,.08,0-.05-.08-.08-.06m-1.21.39a.05.05,0,0,0,0,.09.06.06,0,0,0,.07-.07s-.08-.06-.1,0m.49-.07a.06.06,0,0,0,0,.09s.1,0,.09-.06a.06.06,0,0,0-.11,0m13.44-1.16a.06.06,0,0,0,0,.11.06.06,0,0,0,.08-.06.07.07,0,0,0-.11,0M7.78,14.8a.1.1,0,0,0,0,0,.15.15,0,0,0,.09,0,.84.84,0,0,0,.31-.08.16.16,0,0,0,.08-.06s-.09,0-.13,0a.87.87,0,0,0-.31.1m-.24.29a.06.06,0,0,0,0,.1.06.06,0,0,0,.09-.06.05.05,0,0,0-.08,0m11.51-2.93a.07.07,0,0,0,0,.11.06.06,0,0,0,.09-.07s-.07-.07-.11,0m.22.1a.16.16,0,0,0-.07.18.17.17,0,0,0,.21.12.16.16,0,0,0,.11-.21.17.17,0,0,0-.25-.09m.57-.11a.07.07,0,0,0,0,.11.17.17,0,0,0,.21,0,.08.08,0,0,0,0-.1.17.17,0,0,0-.21,0M6.72,15.69a.17.17,0,0,0-.07.21.16.16,0,1,0,.3-.13.16.16,0,0,0-.23-.08m12.37-3a.07.07,0,0,0,0,.11s.11,0,.11,0a.06.06,0,0,0-.08-.07m1.81-.44a.13.13,0,0,0,0,.23.13.13,0,0,0,.2-.11.13.13,0,0,0-.2-.12M6.44,16.16a.09.09,0,0,0,0,.16.09.09,0,1,0,0-.16M20,12.73a.12.12,0,0,0,0,.2.11.11,0,0,0,.17-.1.12.12,0,0,0-.18-.1M7.1,16.12a.09.09,0,0,0,0,.15.09.09,0,0,0,.13-.1c0-.07-.11-.1-.15-.05M20.57,12.7a.06.06,0,0,0,0,.08s.1,0,.1,0a.06.06,0,0,0-.11,0M6.77,16.43a.06.06,0,0,0,0,.1s.08-.05.06-.08a.05.05,0,0,0-.09,0m-.4.27a.06.06,0,0,0,0,.1.06.06,0,0,0,.08-.06.06.06,0,0,0-.1,0Z"/><path class="cls-4" d="M3.62,10.35a2,2,0,0,1,.24-.16,2.45,2.45,0,0,0-.36.36,2,2,0,0,0-.43,1.1A2,2,0,0,0,3.44,13l.06.12a.82.82,0,0,0,.2.25l.15.11a.81.81,0,0,0,.14.12s.1,0,.14.07a.44.44,0,0,1,0,.15.14.14,0,0,1-.11,0l-.16-.05A2,2,0,0,1,3,13.19a1.18,1.18,0,0,1-.26-.72c0-.09,0-.18,0-.27s0-.17,0-.25a1.28,1.28,0,0,1,0-.27A1.46,1.46,0,0,1,3,11.27a2.67,2.67,0,0,1,.22-.45,1.52,1.52,0,0,1,.44-.47M18,6.62l.29-.1.26,0A2.08,2.08,0,0,0,18,6.8a1.61,1.61,0,0,0-.52.45,2.76,2.76,0,0,0-.36.57,2.75,2.75,0,0,0-.17.29l-.16.24a1.12,1.12,0,0,0-.12.35,3.73,3.73,0,0,0-.58.12,6.59,6.59,0,0,0,.34-.57,5,5,0,0,1,.82-1.12A3.48,3.48,0,0,1,18,6.62m1.92-.09a1.67,1.67,0,0,1,.54.15,1.05,1.05,0,0,1,.49.44.85.85,0,0,1,.09.22,1.15,1.15,0,0,0,.06.17,1,1,0,0,1,0,.45c0,.08,0,.17,0,.26a2.53,2.53,0,0,1-.12.36c0-.05,0-.1,0-.15a1.67,1.67,0,0,0,0-.63,1.92,1.92,0,0,0-.8-1.13l-.23-.14m-1.82.8a.07.07,0,0,1,.1.07.07.07,0,0,1-.1,0,.07.07,0,0,1,0-.11m-.4.45a.1.1,0,0,1,.16.07.09.09,0,0,1-.07.12c-.1,0-.17-.13-.09-.19m.72,0s.11,0,.1.07,0,0-.08,0a.07.07,0,0,1,0-.11m-.58.52a.14.14,0,0,1,.2.08.13.13,0,0,1-.06.16.14.14,0,0,1-.19-.09.13.13,0,0,1,.05-.15m.63,0a.06.06,0,0,1,.1,0s0,.06-.06.05a.07.07,0,0,1,0-.1M6.53,11.57a.06.06,0,0,1,.07.08.06.06,0,0,1-.1,0,.06.06,0,0,1,0-.09m.53.33a.82.82,0,0,1,.3-.07s.07,0,.06,0a.16.16,0,0,1-.08.06.89.89,0,0,1-.28.07A.12.12,0,0,1,7,12a0,0,0,0,1,0,0,.21.21,0,0,1,.1-.06m.75-.2a.06.06,0,0,1,.09.05.06.06,0,0,1-.08.06.07.07,0,0,1,0-.11m8.22-2s.11,0,.1.05a.05.05,0,0,1-.07,0,.06.06,0,0,1,0-.1M8.42,11.91s.08,0,.08.06,0,.07-.08,0a.06.06,0,0,1,0-.11m-1.21.39s.08,0,.1,0a.06.06,0,0,1-.07.07.05.05,0,0,1,0-.09m.49-.07a.06.06,0,0,1,.11,0c0,.05,0,.08-.09.06a.06.06,0,0,1,0-.09M20.75,10a.16.16,0,0,1,.17-.06,3.69,3.69,0,0,1,.64.29,1.78,1.78,0,0,1,.45.37,1.11,1.11,0,0,1,.23.74,2.63,2.63,0,0,1-.36,1,2.4,2.4,0,0,1-.85.91,2.49,2.49,0,0,1-.85.32,1.73,1.73,0,0,1-.68,0,1.3,1.3,0,0,1-.46-.18,2.48,2.48,0,0,1-.58-.49c-.15-.17-.3-.34-.46-.5a2.44,2.44,0,0,0-.89-.61,2,2,0,0,0-.64-.08,6.38,6.38,0,0,0-1,.09c-.35.06-.69.12-1,.21s-.81.24-1.21.38l-.21.07-.55.16-.42.11c-.31.11-.6.23-.9.36s-.49.25-.75.36l-.71.32c-.26.12-.51.24-.76.38l-.56.32c0-.12.08-.24.12-.37A.26.26,0,0,1,8.56,14a.36.36,0,0,1,.1-.11l.24-.13a1.22,1.22,0,0,1,.33-.14,13.75,13.75,0,0,0,1.51-.57c.36-.12.72-.25,1.08-.4l.41-.14c.18-.06.35-.13.53-.18s.49-.17.74-.24l.69-.23a2.67,2.67,0,0,1,.26-.09l.57-.15.48-.1.58-.13.38-.08a.66.66,0,0,1,.2,0,.7.7,0,0,1,.19.06c.07,0,.13.07.2.09l.12.07.15.12.14.14s.11.09.16.14a1.68,1.68,0,0,0,.29.25,1,1,0,0,1,.22.18,1.68,1.68,0,0,0,.48.36,1.92,1.92,0,0,1,.17.13,1.81,1.81,0,0,0,.65.29,3,3,0,0,0,.6,0,1.65,1.65,0,0,0,.8-.26l.24-.13a1.87,1.87,0,0,0,.3-.26c.07-.07.12-.16.2-.23a1.2,1.2,0,0,0,.26-1.2c0-.11-.06-.22-.1-.32a1.38,1.38,0,0,0-.75-.73L20.75,10M4.05,15.53l.1-.27h.06a1.64,1.64,0,0,0,1.48,2,1.67,1.67,0,0,0,1.24-.44c.08-.08.17-.15.24-.23a4.17,4.17,0,0,0,.69-1,7.86,7.86,0,0,0,.5-1.11,1.77,1.77,0,0,0,.33-.08l.33-.1a3.44,3.44,0,0,0-.27.27,3.73,3.73,0,0,0-.3.6,6.43,6.43,0,0,1-.62,1.08,2.36,2.36,0,0,1-.42.47,5.2,5.2,0,0,1-.47.35l-.15.07a1.88,1.88,0,0,1-.46.14,3.43,3.43,0,0,1-.56,0c-.1,0-.2,0-.3,0l-.16,0a2.46,2.46,0,0,1-.71-.12A1.44,1.44,0,0,1,4.21,17a1,1,0,0,1-.34-.75,1.34,1.34,0,0,1,.06-.4,3.21,3.21,0,0,1,.12-.33m17.09-4.46a.07.07,0,0,1,.11,0,.06.06,0,0,1-.08.06.06.06,0,0,1,0-.11M7.78,14.8a.87.87,0,0,1,.31-.1s.1,0,.13,0a.16.16,0,0,1-.08.06.84.84,0,0,1-.31.08.15.15,0,0,1-.09,0,.1.1,0,0,1,0,0m-.24.29a.05.05,0,0,1,.08,0,.06.06,0,0,1-.09.06.06.06,0,0,1,0-.1m11.51-2.93s.11,0,.11,0a.06.06,0,0,1-.09.07.07.07,0,0,1,0-.11m.22.1a.17.17,0,0,1,.25.09.16.16,0,0,1-.11.21.17.17,0,0,1-.21-.12.16.16,0,0,1,.07-.18m.57-.11a.17.17,0,0,1,.21,0,.08.08,0,0,1,0,.1.17.17,0,0,1-.21,0,.07.07,0,0,1,0-.11M6.72,15.69a.17.17,0,1,1,.12.31.16.16,0,0,1-.19-.1.17.17,0,0,1,.07-.21m12.37-3a.06.06,0,0,1,.08.07s-.07.07-.11,0a.07.07,0,0,1,0-.11m1.81-.44a.13.13,0,0,1,.2.12.13.13,0,0,1-.2.11.13.13,0,0,1,0-.23M6.44,16.16a.09.09,0,1,1,0,.16.09.09,0,0,1,0-.16M20,12.73a.12.12,0,0,1,.18.1.11.11,0,0,1-.17.1.12.12,0,0,1,0-.2M7.1,16.12c0-.05.13,0,.15.05a.09.09,0,0,1-.13.1.09.09,0,0,1,0-.15M20.57,12.7a.06.06,0,0,1,.11,0s-.07.08-.1,0a.06.06,0,0,1,0-.08M6.77,16.43a.05.05,0,0,1,.09,0s0,.08-.06.08a.06.06,0,0,1,0-.1m-.4.27a.06.06,0,0,1,.1,0,.06.06,0,0,1-.08.06.06.06,0,0,1,0-.1Z"/></g></g></svg>